<?xml version="1.0" standalone="no"?>
<!DOCTYPE svg PUBLIC "-//W3C//DTD SVG 1.1//EN" "http://www.w3.org/Graphics/SVG/1.1/DTD/svg11.dtd" >
<svg xmlns="http://www.w3.org/2000/svg" xmlns:xlink="http://www.w3.org/1999/xlink" version="1.1">
<metadata></metadata>
<defs>
<font id="jmh_typewriterregular" horiz-adv-x="1368" >
<font-face units-per-em="2048" ascent="1638" descent="-410" />
<missing-glyph horiz-adv-x="880" />
<glyph horiz-adv-x="0" />
<glyph unicode="&#xd;" horiz-adv-x="2048" />
<glyph horiz-adv-x="0" />
<glyph horiz-adv-x="0" />
<glyph unicode=" "  horiz-adv-x="880" />
<glyph unicode="&#x09;" horiz-adv-x="880" />
<glyph unicode="&#xa0;" horiz-adv-x="880" />
<glyph unicode="!" horiz-adv-x="424" d="M44 56v180h20v22h24v24h22v22h44v24h92v-24h20v-22h24v-24h22v-22h24v-24h20v-44h24v-22h-24v-90h-20v-22h-24v-24h-46v-20h-66v-24h-46v24h-44v20h-22v24h-24v22h-20zM44 1204v226h20v66h24v22h22v24h24v20h132v-20h46v-24h24v-46h20v-66h24v-46h-24v-156h-20v-156h-24 v-182h-22v-406h-24v-66h-44v-22h-44v22h-24v24h-20v112h-24v426h-22v178h-24v70h-20z" />
<glyph unicode="&#x22;" horiz-adv-x="1008" d="M44 1450v136h20v24h24v20h158v-20h44v-24h22v-136h-22v-178h-24v-248h-20v-24h-24v-20h-68v20h-22v24h-22v112h-22v158h-24v156h-20zM694 1474v112h24v24h44v20h134v-20h44v-24h24v-158h-24v-336h-20v-68h-24v-24h-22v-20h-68v20h-22v24h-22v112h-24v202h-20v136h-24z " />
<glyph unicode="#" horiz-adv-x="1324" d="M44 372v88h24v24h292v22h44v90h22v68h24v90h-90v22h-202v22h-24v90h24v24h312v22h24v90h22v68h24v134h22v90h24v114h20v88h46v24h66v-24h24v-134h-24v-90h-22v-68h-24v-92h-20v-110h-22v-136h-24v-66h-20v-90h-24v-112h-22v-114h-24v-88h-22v-90h-24v-116h-20v-90h-24 v-132h-22v-136h-24v-90h-20v-46h-24v-20h-22v-24h-20v24h-46v44h-24v66h24v92h22v110h24v70h20v88h22v68h24v92h-24v20h-268v24h-24zM586 -146h20v90h24v112h22v66h20v114h24v68h22v114h24v112h20v90h24v112h22v110h24v92h22v134h24v112h20v114h24v136h22v88h24v24h42v20h24 v-20h20v-24h24v-46h22v-20h-22v-112h-24v-46h-20v-90h-24v-112h-22v-114h-20v-22h20v-44h226v-24h46v-22h20v-68h-20v-22h-136v-22h-24v22h-90v-22h-88v-22h-24v-92h-20v-134h44v-22h224v-24h24v-22h20v-44h-20v-22h-46v-24h-246v-20h-46v-70h-24v-66h-22v-136h-24v-156h-20 v-70h-24v-66h-22v-46h-24v-20h-66v20h-20v136z" />
<glyph unicode="$" horiz-adv-x="1032" d="M44 236v202h24v68h44v24h22v-24h44v-46h22v-66h24v-46h22v-20h24v-24h20v-22h24v-24h46v-22h246v22h46v24h44v22h22v24h24v20h20v46h24v66h22v46h-22v68h-24v22h-20v24h-24v20h-22v24h-44v22h-70v24h-66v22h-66v22h-90v22h-46v22h-44v24h-46v20h-24v24h-22v22h-24v24h-20 v44h-22v46h-24v224h24v44h22v46h20v24h24v44h22v22h46v24h24v22h44v20h46v24h44v22h22v160h24v20h20v24h92v-24h20v-156h24v-24h22v-22h68v-24h66v-20h68v-22h24v-24h20v-22h24v-44h22v-206h-22v-20h-44v-22h-24v22h-68v20h-20v46h-24v136h-22v24h-24v20h-90v24h-112v-24 h-44v-20h-46v-24h-44v-22h-22v-24h-24v-44h-20v-68h-24v-90h24v-20h20v-46h24v-24h22v-22h44v-22h70v-22h112v-24h66v-22h68v-24h66v-20h46v-24h22v-22h24v-22h44v-44h22v-24h24v-66h20v-90h24v-24h-24v-112h-20v-46h-24v-44h-22v-46h-24v-22h-20v-24h-46v-20h-22v-24h-44 v-22h-46v-24h-68v-20h-22v-22h-24v-204h-20v-178h-24v-46h-68v22h-20v24h-24v382h-46v22h-90v20h-112v24h-44v22h-46v24h-20v44h-24z" />
<glyph unicode="%" d="M44 1250v156h22v66h24v24h20v22h24v24h22v20h68v24h68v22h66v-22h114v-24h66v-20h112v-24h68v-22h22v-66h-22v-24h-90v-22h-20v-134h-24v-46h-22v-46h-24v-24h-22v-20h-24v-22h-44v-24h-46v-20h-156v20h-46v24h-44v22h-22v20h-24v24h-20v22h-24v70h-22zM180 1270h20v-44 h24v-22h46v-24h112v24h44v22h22v24h24v44h20v46h-20v66h-24v24h-22v22h-44v20h-90v-20h-46v-22h-22v-24h-24v-46h-20v-90zM292 56h20v46h24v44h22v22h24v90h20v46h24v44h22v46h24v66h20v46h24v68h22v46h24v66h22v46h24v44h20v46h22v44h24v68h20v44h24v70h22v66h24v20h20v70 h24v46h22v44h24v46h22v66h24v66h20v70h24v20h22v24h90v-24h20v-90h-20v-42h-24v-46h-22v-68h-24v-22h-20v-68h-22v-46h-24v-46h-20v-66h-24v-44h-22v-68h-24v-22h-22v-68h-24v-68h-20v-44h-24v-68h-22v-46h-24v-44h-20v-46h-24v-44h-22v-68h-20v-44h-24v-66h-22v-46h-24v-70 h-22v-66h-24v-66h-20v-46h-24v-68h-22v-46h-24v-20h-20v-24h-70v24h-20v156zM764 56v202h20v46h24v44h22v24h46v22h24v24h246v-24h66v-22h24v-24h22v-20h24v-46h20v-70h22v-132h-22v-46h-20v-44h-24v-24h-22v-22h-24v-24h-44v-20h-46v-24h-178v24h-44v20h-46v24h-24v22h-22 v44h-24v46h-20zM876 102h24v-22h20v-24h24v-22h42v-24h70v24h66v22h46v46h24v110h-24v24h-22v46h-24v22h-178v-22h-24v-24h-20v-46h-24v-110z" />
<glyph unicode="&#x26;" horiz-adv-x="1372" d="M44 328v268h24v44h22v46h24v24h22v22h24v22h20v22h24v22h42v24h46v20h44v24h24v68h-24v44h-20v24h-24v46h-22v66h-24v156h24v46h22v44h24v24h20v22h46v24h24v22h46v20h110v24h46v-24h20v24h46v-24h90v-20h24v-22h46v-46h20v-90h-20v-24h-46v-20h-68v20h-22v24h-46v22 h-134v-22h-46v-24h-20v-20h-24v-136h24v-46h20v-20h24v-46h22v-24h24v-22h20v-22h22v-22h24v-24h20v-22h24v-24h22v-20h24v-46h22v-22h24v-22h20v-22h24v-46h22v-24h24v-20h20v-24h24v-46h22v-44h20v-46h24v24h46v180h22v46h24v22h268v-136h-46v-22h-42v-24h-46v-20h-24v-70 h-20v-66h-24v-46h-22v-44h-24v-112h46v-24h24v24h20v20h46v24h66v-24h46v-44h24v-22h-24v-90h-22v-22h-46v-24h-44v-20h-90v20h-66v24h-24v22h-22v24h-46v22h-24v-22h-42v-24h-44v-22h-46v-24h-44v-20h-70v-24h-246v24h-68v20h-44v24h-46v22h-44v24h-22v22h-24v20h-20v24 h-24v46h-22v44h-24v46h-22v46h-24zM226 394h20v-66h24v-46h22v-24h24v-22h20v-44h46v-24h24v-22h66v-24h202v24h70v22h20v24h46v20h24v24h20v68h-20v44h-24v46h-22v44h-24v46h-20v22h-24v44h-22v24h-24v22h-22v44h-24v24h-20v22h-24v24h-22v22h-20v22h-136v-22h-24v-22h-46 v-24h-20v-22h-24v-24h-22v-44h-24v-66h-20v-136z" />
<glyph unicode="'" horiz-adv-x="400" d="M44 1470v110h20v24h24v22h66v24h68v-24h68v-22h46v-44h20v-70h-20v-136h-24v-156h-22v-22h22v-180h-22v-22h-24v-22h-112v22h-20v22h-24v136h-22v222h-24v116h-20z" />
<glyph unicode="(" horiz-adv-x="764" d="M44 640v70h24v156h22v90h24v68h22v24h24v66h20v20h22v46h24v46h20v24h24v20h22v24h24v22h20v44h24v24h22v22h24v24h22v22h24v20h20v46h24v24h22v20h44v24h22v22h90v-22h24v-24h22v-66h-22v-44h-46v-22h-24v-24h-20v-22h-24v-24h-22v-20h-24v-24h-20v-22h-22v-24h-24v-20 h-20v-46h-24v-24h-22v-46h-24v-42h-22v-44h-24v-46h-20v-90h-24v-114h-22v-88h-24v-46h24v-68h-24v-46h24v-112h22v-110h24v-46h20v-70h24v-44h22v-46h24v-20h22v-46h24v-22h20v-24h24v-44h22v-22h20v-24h24v-20h46v-24h20v-22h24v-46h22v-24h24v-86h-46v-24h-68v24h-22v20 h-24v24h-20v22h-22v20h-24v24h-20v22h-24v24h-22v22h-24v24h-22v20h-24v24h-20v22h-24v44h-22v24h-24v46h-20v42h-24v24h-22v22h-20v44h-24v70h-22v90h-24v46h-22v222h-24z" />
<glyph unicode=")" horiz-adv-x="740" d="M44 -236h20v44h24v22h22v24h24v22h44v24h22v20h24v46h22v24h24v20h20v46h24v24h22v22h24v44h20v46h22v44h24v46h20v90h24v88h22v362h-22v66h-24v90h-20v46h-24v68h-22v42h-20v46h-24v24h-22v46h-24v20h-20v24h-24v22h-22v24h-24v44h-22v22h-44v24h-24v22h-22v20h-24v24 h-20v112h20v24h90v-24h24v-22h22v-24h24v-20h22v-24h24v-22h44v-44h22v-22h24v-24h20v-22h22v-24h24v-20h20v-46h24v-24h22v-20h24v-46h22v-24h24v-46h20v-42h24v-24h22v-44h24v-90h20v-136h24v-380h-24v-70h-20v-44h-24v-68h-22v-44h-24v-46h-20v-24h-24v-42h-22v-24h-24 v-46h-22v-20h-24v-24h-20v-22h-24v-24h-22v-20h-20v-24h-24v-22h-22v-24h-24v-22h-20v-24h-24v-20h-22v-46h-24v-20h-66v-24h-46v24h-24v44h-20v22z" />
<glyph unicode="*" horiz-adv-x="1304" d="M44 1114v90h24v46h22v20h134v-20h46v-24h44v-22h46v-24h46v-22h20v-24h70v-20h44v-22h22v-68h-22v-46h-44v24h-90v22h-182v24h-90v20h-66v46h-24zM224 596v24h24v44h22v22h20v24h24v22h22v22h24v22h22v22h24v24h20v20h24v24h22v22h24v24h20v44h70v-22h20v-46h22v-22h-22 v-44h-20v-24h-24v-44h-22v-44h-24v-46h-20v-44h-24v-70h-22v-44h-44v-22h-92v22h-44v24h-22v66h-24zM540 1430v132h22v24h24v22h132v-22h46v-68h24v-22h-24v-90h-22v-156h-24v-116h-20v-20h-24v-22h-22v22h-46v44h-20v158h-24v114h-22zM674 866v22h24v68h44v158h66v20h90v24 h24v22h44v24h44v22h46v24h24v20h110v-20h24v-24h22v-46h24v-66h-24v-46h-22v-20h-158v-24h-112v-22h-90v-24h-46v-90h24v-22h22v-24h24v-20h20v-24h24v-22h22v-22h22v-22h24v-22h20v-24h24v-22h22v-44h24v-46h-24v-24h-22v-44h-44v-22h-92v22h-20v24h-24v44h-22v22h-24v44 h-20v46h-24v68h-22v22h-24v46h-20v44h-24z" />
<glyph unicode="+" horiz-adv-x="1480" d="M44 708v24h20v42h24v24h136v22h88v-22h24v22h110v-22h70v22h132v564h24v24h46v20h44v-20h22v-24h24v-22h20v-338h-20v-158h20v-22h24v-24h540v-22h20v-24h24v-66h-24v-44h-90v-22h-20v22h-112v-22h-24v22h-292v-22h-46v-160h-20v-178h20v-204h-20v-22h-24v-20h-46v-24 h-20v24h-46v42h-24v518h-20v24h-92v22h-472v44h-20z" />
<glyph unicode="," horiz-adv-x="424" d="M44 -306h20v44h24v22h22v44h24v24h20v22h22v90h-22v24h-20v22h-24v66h-22v46h22v68h44v22h46v24h66v-24h24v-22h46v-24h20v-44h24v-248h-24v-46h-20v-20h-24v-24h-22v-22h-24v-24h-20v-20h-24v-22h-22v-24h-24v-22h-42v-24h-24v24h-46v46h-20v22z" />
<glyph unicode="-" horiz-adv-x="940" d="M44 576v136h22v20h66v24h226v-24h316v24h176v-24h24v-20h22v-112h-22v-46h-90v-22h-694v22h-24v22h-22z" />
<glyph unicode="." horiz-adv-x="472" d="M44 -14v44h24v92h22v20h24v24h22v22h90v24h20v-24h90v-22h24v-24h22v-44h24v-46h22v-22h-22v-66h-24v-24h-22v-20h-24v-24h-20v-22h-24v-24h-66v24h-66v22h-46v24h-24v20h-22v46h-24z" />
<glyph unicode="/" horiz-adv-x="876" d="M44 -152h24v90h20v66h24v70h22v66h24v46h22v44h24v70h20v66h24v66h22v70h24v46h20v44h22v66h24v92h20v66h24v44h22v70h24v66h22v66h24v70h20v44h24v68h22v68h24v66h20v68h24v44h22v70h20v44h24v22h92v-22h20v-24h24v-90h-24v-44h-20v-46h-24v-46h-22v-66h-24v-66h-22v-46 h-24v-68h-20v-46h-22v-44h-24v-88h-20v-70h-24v-66h-22v-44h-24v-70h-20v-66h-24v-46h-22v-66h-24v-70h-22v-44h-24v-88h-20v-46h-24v-44h-22v-90h-20v-70h-24v-66h-22v-90h-24v-92h-20v-20h-24v-24h-68v-22h-24v22h-20v24h-24v66z" />
<glyph unicode="0" horiz-adv-x="1100" d="M44 600v314h22v202h24v68h20v68h22v44h24v46h22v24h22v42h22v24h24v22h22v24h24v20h20v24h70v22h66v24h202v-24h90v-22h24v-24h42v-20h24v-24h22v-22h24v-24h20v-22h24v-20h22v-46h24v-68h20v-46h24v-112h22v-136h24v-382h-24v-136h-22v-66h-24v-66h-20v-24h-24v-46h-22 v-44h-24v-22h-20v-24h-24v-44h-46v-22h-22v-24h-20v-22h-24v-20h-90v-24h-136v24h-112v20h-44v22h-46v24h-20v22h-46v24h-24v20h-22v24h-22v46h-22v44h-24v46h-22v66h-20v66h-24v160h-22zM222 600h24v-136h22v-90h24v-66h20v-24h24v-46h22v-20h24v-24h20v-22h46v-24h156v24 h46v22h44v24h24v20h22v24h24v22h20v68h22v44h24v90h22v204h24v22h-24v136h24v90h-24v132h-22v90h-24v70h-22v46h-20v44h-24v22h-22v24h-24v20h-44v22h-46v24h-112v-24h-44v-22h-46v-20h-20v-24h-24v-22h-22v-44h-24v-46h-20v-70h-24v-90h-22v-178h-24v-292z" />
<glyph unicode="1" horiz-adv-x="1032" d="M44 1408v70h24v20h20v24h248v22h114v24h88v-24h24v-22h20v-674h-20v-24h20v-112h-20v-22h20v-114h-20v-66h20v-90h-20v-182h20v-44h24v-22h22v-24h336v-20h24v-112h-854v20h-46v92h24v20h42v24h24v-24h158v24h44v22h24v360h-24v92h24v268h-24v202h24v250h-24v20h-134v-20 h-178v42h-24z" />
<glyph unicode="2" horiz-adv-x="1056" d="M44 58v90h22v46h24v24h22v20h24v24h20v22h24v24h22v22h20v22h24v44h22v24h24v20h20v24h24v22h22v24h24v22h22v22h24v46h20v22h24v24h22v20h24v24h20v42h22v24h24v22h20v46h24v24h22v44h24v46h22v66h24v66h20v206h-20v44h-24v22h-22v24h-24v20h-22v22h-68v24h-156v-24h-22 v-22h-24v-20h-22v-24h-24v-22h-20v-114h-24v-46h-22v-20h-24v-24h-86v24h-24v20h-22v92h22v68h24v22h20v44h24v22h22v24h20v22h24v24h22v20h24v24h44v22h92v24h200v-24h68v-22h44v-24h24v-20h22v-24h24v-22h20v-24h24v-22h22v-20h20v-46h24v-68h22v-182h-22v-66h-24v-66h-20 v-46h-22v-24h-24v-20h-20v-24h-24v-46h-22v-22h-24v-24h-20v-20h-24v-46h-22v-20h-24v-24h-22v-22h-24v-46h-20v-22h-24v-22h-22v-24h-20v-22h-24v-24h-22v-20h-24v-24h-20v-22h-24v-22h-22v-44h-24v-46h-22v-24h-24v-44h316v-22h22v22h226v24h44v20h46v-20h46v-90h-24v-70 h-22v-22h-46v-20h-90v20h-20v-20h-114v20h-178v-20h-24v20h-66v-20h-338v20h-24v22h-22z" />
<glyph unicode="3" horiz-adv-x="1056" d="M44 104v24h22v20h24v24h66v-24h46v-20h44v-24h90v-22h224v22h68v24h46v20h22v24h24v22h20v44h24v46h22v68h24v180h-24v68h-22v22h-24v44h-44v24h-22v22h-46v20h-180v24h-20v22h-24v70h24v20h132v24h68v22h46v44h22v46h24v46h20v156h-20v46h-24v44h-22v24h-24v22h-22v24 h-24v20h-86v22h-24v-22h-90v-20h-22v-24h-24v-22h-22v-44h-24v-46h-20v-24h-24v-22h-112v22h-20v90h20v70h24v20h22v46h20v22h46v24h44v20h46v24h114v22h46v-22h110v-24h68v-20h44v-24h46v-22h24v-24h20v-22h24v-44h22v-22h20v-90h24v-202h-24v-70h-20v-44h-22v-22h-24v-24 h-20v-20h-24v-46h24v-24h20v-22h24v-24h22v-20h20v-22h24v-24h22v-44h24v-46h22v-90h24v-134h-24v-68h-22v-66h-24v-46h-22v-44h-24v-24h-20v-22h-22v-24h-24v-22h-20v-20h-46v-24h-68v-22h-68v-24h-336v24h-70v22h-42v24h-44v20h-46v22h-24v46h-22z" />
<glyph unicode="4" horiz-adv-x="1236" d="M44 396v158h22v68h24v24h20v44h24v42h22v24h24v46h22v46h24v44h20v46h22v66h24v46h20v44h24v46h22v44h24v68h20v24h24v66h22v66h24v46h22v44h24v46h20v24h24v20h22v24h20v-24h70v-20h20v-114h-20v-46h-24v-42h-22v-46h-24v-44h-20v-24h-22v-68h-24v-44h-20v-46h-24v-44 h-22v-46h-24v-46h-22v-44h-24v-46h-20v-44h-24v-46h-22v-22h-24v-44h-20v-46h-24v-20h-22v-46h-20v-68h-24v-22h24v-24h42v-22h406v22h66v46h24v406h22v20h24v24h66v-24h24v-20h20v-428h22v-24h24v-22h180v-24h22v-44h24v-22h-24v-22h-22v-22h-180v-22h-24v-46h-22v-24h22 v-134h-22v-88h-20v-24h-24v-22h-66v22h-46v66h-24v24h24v66h-24v182h-630v22h-44v44h-22z" />
<glyph unicode="5" horiz-adv-x="1056" d="M44 58v70h24v20h112v-20h90v-24h182v24h66v20h44v24h46v22h44v24h22v20h24v24h22v46h24v22h20v44h24v112h22v114h-22v90h-24v42h-20v24h-24v46h-46v22h-22v24h-24v20h-44v24h-248v-24h-134v46h-22v270h22v314h44v24h542v22h66v-22h46v-114h-24v-22h-46v-20h-448v-24h-22 v-90h-24v-202h46v-22h292v-24h46v-22h44v-24h24v-20h42v-24h24v-22h22v-24h24v-44h20v-22h24v-46h22v-44h24v-90h22v-22h-22v-68h22v-22h-22v-136h-24v-44h-22v-46h-24v-22h-20v-68h-24v-22h-22v-24h-24v-44h-20v-22h-46v-24h-20v-22h-46v-20h-46v-24h-90v-22h-336v22h-90 v24h-46v20h-22v22h-24z" />
<glyph unicode="6" horiz-adv-x="1056" d="M44 510v292h24v112h22v90h24v66h22v70h20v44h24v46h22v22h24v44h20v24h24v22h22v24h24v20h20v22h24v24h22v22h46v24h24v20h66v24h44v22h46v24h136v20h66v-20h44v-114h-44v-22h-112v-24h-90v-22h-46v-20h-24v-24h-44v-22h-22v-24h-20v-20h-24v-46h-22v-24h-24v-22h-22v-44 h-24v-46h-20v-44h-24v-46h-22v-66h-24v-70h70v24h20v22h70v24h46v20h66v24h156v-24h70v-20h20v-24h46v-22h44v-24h22v-20h24v-24h20v-22h24v-70h22v-20h24v-90h22v-90h-22v-46h22v-22h-22v-134h-24v-68h-22v-44h-24v-46h-20v-24h-24v-44h-46v-22h-42v-24h-24v-22h-20v-20 h-46v-24h-90v-22h-156v22h-92v24h-44v20h-46v22h-24v24h-20v22h-24v44h-22v24h-24v46h-20v44h-22v46h-24v88h-22v114h-24zM246 396h24v-66h22v-46h24v-46h20v-20h24v-24h22v-22h24v-24h22v-20h66v-24h68v24h66v20h46v24h24v22h22v24h24v44h20v22h24v68h22v314h-22v24h-24v42 h-20v24h-24v22h-46v24h-66v22h-114v-22h-66v-24h-46v-22h-22v-24h-24v-20h-20v-22h-24v-44h-22v-46h-24v-204z" />
<glyph unicode="7" horiz-adv-x="1008" d="M44 1408v70h20v20h46v24h66v-24h250v24h470v-24h24v-20h20v-24h24v-134h-24v-44h-20v-46h-24v-46h-22v-90h-24v-66h-20v-46h-24v-44h-22v-46h-22v-44h-24v-46h-20v-90h-24v-66h-22v-24h-24v-46h-20v-66h-24v-70h-22v-66h-24v-90h-20v-22h-24v-114h-22v-44h-24v-68h-22 v-20h-20v-46h-24v-24h-46v-20h-66v20h-24v24h-20v112h20v46h24v44h22v66h24v46h20v68h24v44h22v44h24v70h20v44h22v68h24v44h22v66h24v46h20v70h24v44h22v22h24v68h20v68h24v44h22v46h24v44h20v92h24v20h-24v46h-650v24h-24v42h-20z" />
<glyph unicode="8" horiz-adv-x="1100" d="M44 396v68h22v112h24v46h20v44h24v24h22v22h22v20h44v24h24v22h22v24h24v22h44v24h-24v20h-20v24h-24v22h-22v24h-46v44h-22v22h-22v66h-22v70h-24v112h24v68h22v66h22v46h22v22h22v24h24v20h46v24h20v22h70v24h66v20h202v-20h90v-24h44v-22h46v-24h22v-20h24v-46h20v-24 h24v-42h22v-46h24v-226h-24v-44h-22v-46h-24v-22h-20v-24h-24v-20h-22v-24h-22v-22h-24v-44h24v-24h22v-22h46v-24h20v-22h24v-24h22v-20h24v-46h20v-20h24v-46h22v-90h24v-136h-24v-90h-22v-46h-24v-20h-20v-24h-24v-22h-22v-24h-24v-20h-20v-24h-24v-22h-22v-24h-46v-22 h-44v-20h-136v-24h-112v24h-156v20h-44v22h-46v24h-24v22h-22v24h-22v20h-22v24h-22v46h-24v44h-20v22h-24v112h-22zM222 420h24v-90h22v-46h24v-46h20v-20h24v-24h22v-22h68v-24h66v-20h92v20h66v24h44v22h46v24h24v20h20v46h24v24h22v88h22v68h-22v90h-22v46h-24v46h-20 v20h-24v24h-46v22h-44v20h-46v24h-112v-24h-90v-20h-44v-22h-22v-24h-24v-20h-20v-46h-24v-46h-22v-68h-24v-66zM292 1116h20v-46h24v-20h22v-22h24v-24h20v-22h46v-24h66v-20h90v20h46v24h44v22h46v46h24v44h20v66h24v70h-24v90h-20v22h-24v44h-22v22h-44v24h-46v22h-156 v-22h-46v-24h-44v-22h-24v-20h-22v-24h-24v-66h-20v-160z" />
<glyph unicode="9" horiz-adv-x="1032" d="M44 938v246h24v68h20v68h22v46h24v20h20v46h24v22h46v24h22v20h44v24h46v22h110v24h136v-24h70v-22h66v-24h44v-20h22v-24h46v-22h24v-46h20v-20h24v-46h22v-44h24v-46h20v-114h24v-404h-24v-90h-20v-90h-24v-92h-22v-44h-24v-44h-20v-22h-24v-46h-22v-22h-24v-44h-22 v-24h-20v-22h-24v-24h-22v-20h-24v-24h-20v-22h-46v-24h-44v-22h-46v-20h-46v-24h-66v-22h-90v-24h-44v24h-92v46h-24v20h24v46h46v22h90v24h66v20h66v24h46v22h46v44h24v24h44v22h22v24h24v44h20v44h24v44h22v46h24v46h20v134h-20v-20h-46v-24h-44v-22h-46v-24h-246v24h-70 v22h-44v24h-22v20h-24v24h-22v22h-24v20h-20v46h-24v46h-22v44h-20v70h-24zM224 982h22v-90h24v-24h20v-44h24v-22h22v-24h44v-22h46v-24h156v24h46v22h24v24h20v22h46v44h24v24h20v22h22v292h-22v46h-20v44h-24v46h-22v24h-24v20h-44v22h-66v24h-92v-24h-44v-22h-46v-20 h-44v-24h-22v-22h-24v-44h-20v-24h-24v-136h-22v-134z" />
<glyph unicode=":" horiz-adv-x="380" d="M44 48v22h22v46h24v44h42v24h68v-24h66v-20h46v-46h24v-90h-24v-22h-22v-24h-24v-20h-156v20h-20v24h-24v66h-22zM44 678v22h22v68h24v22h20v24h136v-24h20v-22h46v-68h24v-22h-24v-66h-22v-24h-44v-22h-136v22h-20v24h-24v66h-22z" />
<glyph unicode=";" horiz-adv-x="462" d="M48 658v38q-4 8 0 12t8 5t12 -1v50q-4 6 -1 10t4 5t7 2t8 1q0 8 1 13t5 6t12 -1h12q6 0 9 4t1 12q-2 6 1 7t8 0t9 0t2 7q-4 12 7 14t11 4v18h74q8 4 11 0t3 -8v-14h38q14 0 20 -1t2 -13q-2 -6 2 -7t9 0t7 -1t0 -10q-4 -8 0 -10t11 -2t9 -2q-4 -22 18 -18v-150 q6 -12 -5 -14t-13 -4q2 -8 1 -13t-5 -6t-12 1q-4 -2 -4 -6v-8q0 -4 -2 -7t-8 -1t-8 -1t-1 -8t0 -8t-5 -3q-8 4 -11 0t-4 -7t-1 -9q2 -4 2 -6h-50q-4 -2 -12 0t-13 0t-3 -8q2 -8 -1 -11t-13 -2t-12 1h-8q-10 -2 -14 0t-2 12q2 6 -3 8t-14 0t-11 0q-12 -6 -11 8t-3 14 q-8 -2 -12 1t-4 8t2 11h-10q-4 0 -8 1t-5 5t1 10q0 4 1 12t-1 13t-8 3q-8 0 -10 16v12q4 10 -2 13t-18 3zM84 -274q-2 6 1 8t8 1t9 0t2 7q-4 8 0 11t6 3h18v18q0 2 3 6t11 0q6 -2 7 1t0 9t1 9t8 1q8 -2 12 1t4 9v12q2 2 9 2t11 3t0 11q2 6 1 13t0 13t5 6q8 -2 12 0t4 8v14 q-2 4 0 11t1 13t-7 8q-4 -2 -8 -2q-10 0 -8 22q-12 0 -18 2t-2 14q0 4 -4 5t-9 0t-9 1t-2 8q2 8 0 12t-8 4h-14v54q4 6 1 9t-7 3h-10q-6 0 -8 2q-4 8 0 11t6 3h18v70q-2 12 2 18t16 2q4 2 4 14t10 8q6 0 13 -1t14 0t7 5v20h46q6 4 10 0t4 -8v-16h38q6 -2 13 0t13 0t4 -8 q-2 -8 1 -11t11 -3t10 -2q-2 -14 1 -20t15 -2q6 2 7 -3t0 -14t1 -11q-2 -8 -2 -11t5 -5t8 -2t9 2v-54q-4 -6 0 -9t7 -4t11 -1h6v-116q6 -12 -8 -11t-16 -3q4 -12 -1 -16t-17 -2q-4 0 -3 -16t1 -20q2 -8 -4 -9t-13 0t-7 -5q2 -12 -2 -17t-16 -3q-2 0 -3 -4t-1 -8v-20 q4 -8 -1 -11t-12 -1t-11 -2q2 -12 -2 -17t-14 -3q-6 0 -5 -7t0 -13t-10 -3t-11 0t-3 -11t-1 -10q-8 0 -13 -1t-7 -5t0 -12q2 -6 -3 -7t-10 0t-9 0t-2 -7q2 -4 2 -8q-2 -6 -24 -6q-8 2 -13 1t-7 -6t0 -13q0 -6 -6 -7t-13 1t-13 0q-4 2 -12 0t-13 0t-5 8q4 8 1 12t-9 4h-12v74 z" />
<glyph unicode="&#x3c;" horiz-adv-x="704" d="M44 564v96l14 6l-10 20l452 336l10 -20l58 30l24 -38l10 8l58 -96l-14 -6l10 -18l-14 -10l10 -20l-108 -64l-14 20l-234 -196l234 -196l14 20l108 -64l-10 -20l14 -10l-10 -18l14 -6l-58 -96l-10 8l-24 -38l-58 30l-10 -20l-452 336l10 20z" />
<glyph unicode="=" horiz-adv-x="1236" d="M44 524v44h24v24h22v22h246v24h46v-24h788v-46h22v-66h-22v-24h-608v-22h-136v22h-336v24h-22v22h-24zM44 860v46h24v24h22v22h136v22h90v-22h382v22h136v-22h336v-22h22v-70h-22v-44h-136v-22h-24v22h-90v-22h-110v22h-92v-22h-90v22h-66v-22h-448v22h-46v44h-24z" />
<glyph unicode="&#x3e;" horiz-adv-x="704" d="M44 318l14 6l-10 18l14 10l-10 20l108 64l14 -20l234 196l-234 196l-14 -20l-108 64l10 20l-14 10l10 18l-14 6l58 96l10 -8l24 38l58 -30l10 20l452 -336l-10 -20l14 -6v-96l-14 -6l10 -20l-452 -336l-10 20l-58 -30l-24 38l-10 -8z" />
<glyph unicode="?" horiz-adv-x="852" d="M44 1112v160h24v20h20v46h24v46h22v24h24v42h46v24h44v20h22v24h66v22h180v-22h90v-24h22v-20h44v-24h24v-22h22v-20h24v-24h22v-22h24v-70h20v-180h-20v-66h-24v-46h-22v-44h-24v-22h-22v-24h-24v-20h-20v-24h-24v-22h-22v-24h-20v-46h-24v-20h-22v-22h-24v-44h-20v-46 h-24v-160h-22v-20h-114v20h-22v136h22v70h24v44h20v22h24v44h22v46h46v46h24v20h20v24h24v46h22v44h24v46h20v178h-20v68h-24v46h-46v22h-202v-22h-24v-24h-20v-46h-22v-180h-24v-20h-20v-22h-116v22h-20v20h-24zM270 58v156h20v22h24v44h46v24h44v22h68v-22h44v-24h46v-44 h24v-46h20v-66h-20v-46h-24v-44h-46v-22h-202v22h-24v24h-20z" />
<glyph unicode="@" horiz-adv-x="1348" d="M44 438v450h24v90h20v90h24v46h22v66h24v46h20v44h24v24h22v22h24v44h22v24h24v22h20v24h24v22h22v20h44v24h22v22h44v24h70v20h90v24h88v-24h204v-20h66v-24h46v-22h20v-24h24v-20h46v-22h22v-24h24v-46h20v-20h24v-70h22v-66h24v-136h20v-20h-20v-114h-24v-112h-22v-68 h-24v-114h-20v-180h20v-42h46v-24h44v-22h24v-90h-44v-24h-114v24h-46v22h-22v24h-66v-24h-24v-22h-66v-24h-24v-22h-180v22h-66v24h-46v22h-20v24h-24v20h-22v24h-24v22h-22v44h-24v112h-20v70h20v112h24v90h22v44h24v46h22v22h24v22h20v22h24v24h22v22h66v24h68v20h136 v-20h90v-24h88v24h24v20h-24v182h-22v44h-24v22h-20v24h-22v20h-24v24h-44v22h-66v24h-70v22h-178v-22h-90v-24h-46v-22h-44v-24h-24v-20h-22v-24h-24v-22h-20v-24h-22v-20h-24v-46h-20v-46h-24v-44h-22v-46h-24v-44h-22v-90h-24v-270h-20v-158h20v-134h24v-90h22v-90h24 v-46h22v-44h24v-22h20v-46h24v-24h22v-20h20v-24h24v-22h22v-24h44v-20h24v-24h22v-22h46v-24h44v-22h70v-24h494v-86h-24v-24h-92v-22h-176v-24h-46v24h-136v22h-90v24h-66v20h-46v24h-24v22h-44v20h-22v24h-44v22h-22v24h-24v22h-20v24h-24v20h-22v24h-24v22h-22v44h-24 v24h-20v46h-24v66h-22v46h-24v112h-20v134h-24zM586 550h20v-66h24v-46h22v-20h24v-24h20v-22h202v22h46v24h44v42h24v24h22v112h20v136h24v66h-24v44h-20v24h-22v22h-24v24h-20v22h-70v22h-66v-22h-70v-22h-20v-24h-46v-22h-20v-24h-24v-20h-22v-46h-24v-66h-20v-160z" />
<glyph unicode="A" horiz-adv-x="1480" d="M44 26v90h24v22h44v24h42v20h24v24h22v66h24v24h20v68h24v66h22v68h24v46h22v46h24v44h20v90h24v44h22v44h24v70h20v44h22v68h24v90h20v66h24v68h22v46h24v90h22v88h44v24h24v22h66v-22h24v-24h22v-42h20v-70h24v-44h22v-68h24v-68h22v-66h24v-68h20v-68h24v-66h22v-70 h24v-44h20v-44h24v-44h22v-90h24v-46h20v-46h22v-90h24v-44h22v-68h24v-44h20v-46h24v-44h46v-24h66v-22h44v-90h-20v-22h-472v22h-70v66h24v24h90v22h66v24h24v66h-24v68h-20v68h-24v44h-22v22h-24v24h-312v20h-160v-20h-42v-24h-24v-88h-22v-70h-24v-90h24v-20h22v-24h134 v-22h22v-66h-22v-24h-246v-22h-226v22h-44zM516 610h20v-20h338v20h46v70h-22v44h-24v88h-22v70h-24v66h-20v46h-22v68h-24v42h-20v46h-24v-22h-46v-44h-20v-68h-24v-44h-22v-90h-24v-46h-22v-68h-24v-44h-20v-114z" />
<glyph unicode="B" horiz-adv-x="1188" d="M44 26v66h24v24h44v22h66v24h24v20h22v338h24v160h-24v494h24v66h-24v46h-46v24h-110v20h-24v90h24v22h650v-22h114v-20h44v-24h22v-22h46v-44h20v-24h24v-46h22v-112h24v-24h-24v-88h-22v-44h-24v-46h-20v-24h-22v-20h-24v-24h-22v-22h-24v-24h-20v-20h20v-24h24v-22h68 v-22h20v-24h46v-20h24v-24h20v-22h24v-44h22v-24h24v-68h20v-202h-20v-44h-24v-46h-22v-44h-24v-24h-20v-22h-24v-24h-46v-22h-20v-20h-46v-24h-46v-22h-90v-24h-44v24h-248v-24h-134v24h-268v22h-24zM404 162h22v-24h68v-22h224v22h44v24h46v20h24v24h44v46h22v44h24v46h22 v112h-22v66h-24v46h-22v24h-24v20h-20v24h-24v22h-46v24h-44v20h-90v24h-202v-24h-22v-538zM404 882h22v-46h158v22h68v24h44v20h22v24h44v22h24v46h22v44h24v136h-24v66h-22v24h-24v22h-44v24h-90v20h-158v-20h-44v-46h-22v-382z" />
<glyph unicode="C" horiz-adv-x="1168" d="M44 544v314h24v90h20v68h24v68h22v44h24v46h22v22h24v44h20v24h24v22h22v24h24v20h20v24h22v22h44v24h24v20h46v22h66v24h248v-24h114v-22h202v-20h20v-46h24v-44h-24v-226h24v-46h-24v-22h-20v-22h-92v22h-20v46h-24v112h-22v44h-24v22h-20v24h-24v22h-46v24h-268v-24 h-44v-22h-46v-24h-24v-22h-22v-22h-24v-46h-20v-22h-24v-44h-22v-68h-20v-90h-24v-202h-22v-68h22v-182h24v-86h20v-70h22v-22h24v-44h20v-24h24v-22h22v-24h46v-20h44v-24h46v-22h202v22h44v24h46v20h24v24h20v46h24v20h22v92h24v66h20v24h22v20h70v-20h44v-292h-24v-24 h-20v-22h-24v-24h-46v-22h-22v-20h-44v-24h-46v-22h-90v-24h-90v-20h-132v20h-114v24h-68v22h-44v24h-46v20h-20v22h-24v24h-22v22h-24v24h-20v44h-24v22h-22v24h-24v66h-22v46h-24v66h-20v114h-24z" />
<glyph unicode="D" horiz-adv-x="1304" d="M44 1330v70h24v20h22v22h158v-22h248v22h44v-22h224v-20h68v-24h46v-22h44v-24h46v-20h22v-24h20v-22h24v-24h22v-22h24v-22h20v-22h24v-46h22v-24h24v-42h20v-68h24v-92h22v-110h24v-202h-24v-136h-22v-66h-24v-70h-20v-46h-24v-44h-22v-22h-24v-24h-20v-20h-24v-46h-46 v-24h-20v-22h-22v-20h-46v-24h-24v-22h-134v-24h-650v24h-24v22h-22v66h46v24h66v22h44v24h24v854h22v112h-22v46h22v44h-22v46h-24v22h-66v24h-90v20h-24zM406 474h20v-312h24v-24h66v-22h136v22h66v24h70v20h44v24h46v46h20v20h24v24h22v46h24v46h22v66h20v66h24v136h22 v90h-22v156h-24v70h-20v66h-22v24h-24v42h-22v24h-24v46h-44v22h-22v22h-24v22h-20v24h-90v22h-226v-22h-22v-24h-24v-696h-20v-70z" />
<glyph unicode="E" horiz-adv-x="1236" d="M44 1354v66h22v22h1056v-22h24v-66h22v-90h-22v-114h-24v-66h-20v-22h-92v42h-24v114h-20v46h-46v22h-134v24h-338v-24h-22v-292h-24v-68h24v-68h22v-22h246v46h24v44h22v68h24v22h46v-22h20v-46h24v-22h-24v-406h-66v24h-24v46h-22v44h-24v46h-20v20h-66v24h-160v-44 h-22v-24h-24v-450h24v-44h22v-24h406v24h90v20h42v24h24v46h22v90h24v66h22v22h68v-22h22v-44h24v-314h-24v-24h-22v-22h-44v-24h-46v24h-946v22h-20v24h-24v42h24v24h44v22h68v24h24v20h20v1104h-44v24h-112v20h-24v24h-22z" />
<glyph unicode="F" horiz-adv-x="1280" d="M44 1376v24h24v42h226v24h42v-24h452v24h382v-24h44v-42h22v-204h-22v-158h-24v-22h-66v22h-24v24h-20v156h-24v22h-22v24h-66v22h-90v24h-226v20h-136v-20h-44v-474h44v-24h158v24h90v90h24v68h44v22h22v-22h24v-22h20v-474h-44v-24h-22v24h-24v22h-20v70h-24v66h-22v24 h-90v20h-136v-20h-20v-24h-24v-136h-22v-112h22v-20h-22v-46h22v-136h24v-24h20v-20h70v-24h132v-22h24v-66h-24v-24h-20v-22h-564v22h-44v90h24v22h44v24h112v44h24v360h20v90h-20v180h20v112h-20v338h-24v24h-90v20h-22v-20h-44v20h-46v46h-24z" />
<glyph unicode="G" horiz-adv-x="1280" d="M44 590v222h24v136h22v114h24v42h20v46h24v46h22v44h24v24h20v22h24v24h22v20h20v24h46v22h24v24h46v20h44v22h66v24h292v-24h114v-22h202v-20h22v-46h24v-90h-24v-226h-22v-44h-44v-22h-24v22h-46v44h-20v112h-24v46h-22v44h-22v24h-24v22h-44v24h-46v20h-222v-20h-46 v-24h-68v-22h-22v-24h-24v-22h-20v-22h-24v-22h-22v-46h-24v-44h-22v-46h-24v-44h-20v-112h-22v-338h22v-114h20v-66h24v-22h22v-46h24v-44h22v-24h44v-22h24v-24h22v-20h68v-24h46v-22h202v22h44v24h46v20h44v24h22v224h-22v24h-24v20h-180v24h-20v92h44v20h472v-20h22v-92 h-22v-24h-44v-20h-46v-338h-24v-24h-110v-22h-46v-20h-46v-24h-44v-22h-66v-24h-70v-20h-112v20h-134v24h-46v22h-66v24h-46v20h-24v22h-20v24h-22v22h-24v24h-20v20h-24v46h-22v44h-24v24h-20v46h-24v88h-22v160h-24z" />
<glyph unicode="H" horiz-adv-x="1348" d="M44 1310v66h24v24h22v20h362v-20h66v-24h24v-90h-70v-22h-44v-226h-22v-202h22v-24h24v-20h448v20h44v70h22v66h-22v316h-90v22h-90v44h-20v24h20v46h70v20h178v-20h224v-24h24v-90h-68v-22h-46v-46h-20v-1080h20v-22h90v-24h46v-22h22v-90h-68v-20h-312v20h-70v24h-20 v66h20v22h46v24h24v22h20v382h22v70h-22v44h-382v22h-90v-22h-44v-44h-22v-452h22v-22h44v-24h90v-22h24v-90h-90v-20h-180v20h-66v-20h-92v20h-44v46h-24v24h24v42h44v24h68v272h24v42h-24v496h24v22h-24v202h24v68h-24v46h-46v22h-112v24h-24z" />
<glyph unicode="I" horiz-adv-x="1080" d="M44 1330v70h24v42h676v24h20v-24h156v-22h24v-20h22v-24h-22v-66h-114v-24h-202v-22h-20v-362h-24v-66h24v-654h20v-20h46v-24h316v-22h22v-24h24v-66h-46v-22h-834v22h-20v24h-22v66h22v22h44v24h112v-24h68v24h46v44h22v898h24v92h-24v68h-22v22h-180v24h-158v20h-24z " />
<glyph unicode="J" horiz-adv-x="1236" d="M44 206v158h22v24h68v20h22v-20h46v-24h24v-46h20v-46h22v-44h24v-22h20v-24h24v-20h46v-24h202v-22h20v22h70v24h44v20h22v24h24v46h22v1012h-46v22h-66v24h-180v20h-22v70h22v42h652v-22h22v-20h24v-24h-24v-46h-22v-20h-44v-24h-24v24h-92v-24h-20v-22h-24v-270h24 v-92h-24v-20h24v-630h-24v-70h-22v-66h-20v-24h-24v-22h-22v-20h-24v-24h-44v-22h-92v-24h-90v-20h-20v20h-202v24h-90v22h-66v24h-46v20h-70v22h-20v24h-24v90h-22z" />
<glyph unicode="K" horiz-adv-x="1436" d="M44 1376v24h20v42h70v24h22v-24h114v24h20v-24h248v-22h24v-66h-24v-24h-90v-20h-22v-46h-24v-136h24v-24h-24v-42h24v-90h-24v-90h24v-46h22v-44h24v20h44v24h22v22h24v24h20v20h24v24h22v22h20v24h24v22h22v22h24v22h22v46h24v20h20v46h24v24h22v22h24v44h20v24h-20v46 h-46v20h-44v90h20v22h70v24h20v-24h136v24h156v-24h70v-42h20v-46h-20v-24h-24v-20h-66v-24h-46v-22h-24v-24h-20v-22h-24v-22h-22v-22h-24v-24h-22v-46h-20v-20h-24v-22h-22v-24h-24v-22h-20v-22h-24v-22h-22v-24h-24v-46h-20v-20h-24v-24h-22v-22h-46v-90h22v-22h24v-44 h22v-24h24v-22h20v-24h24v-20h22v-24h24v-22h20v-24h24v-46h22v-20h24v-24h20v-42h22v-24h24v-22h22v-24h24v-22h20v-24h24v-44h22v-22h24v-24h20v-20h90v-24h92v-22h20v-24h24v-66h-24v-22h-44v-24h-44v24h-204v22h-44v24h-22v20h-24v22h-22v46h-20v24h-24v44h-22v22h-24 v44h-20v24h-24v22h-22v24h-24v22h-20v44h-24v22h-22v24h-24v44h-22v22h-24v24h-20v22h-22v24h-24v20h-20v24h-46v22h-44v-22h-46v-362h-24v-20h24v-70h22v-20h44v-24h90v-22h24v-24h22v-66h-46v-22h-292v22h-20v-22h-136v22h-24v44h-22v22h22v24h24v22h46v24h44v20h22v1104 h-22v24h-136v20h-24v46h-20z" />
<glyph unicode="L" horiz-adv-x="1348" d="M44 1330v112h46v24h584v-24h46v-42h20v-24h-20v-22h-24v-24h-46v-20h-112v-24h-20v-22h-24v-114h24v-66h-24v-68h24v-90h-24v-720h24v-44h44v-24h248v24h178v20h68v24h46v112h20v136h24v20h112v-20h24v-316h22v-68h-22v-66h-46v-24h-158v24h-922v22h-44v44h-22v22h22v24 h24v22h20v24h136v20h20v946h24v136h-24v22h-20v24h-202v20h-46z" />
<glyph unicode="M" horiz-adv-x="1552" d="M44 1420v22h24v24h46v22h226v-22h66v-24h20v-22h24v-44h22v-46h24v-44h22v-68h24v-44h20v-46h24v-44h22v-46h24v-44h20v-46h24v-46h22v-66h20v-24h24v-44h68v44h24v24h20v66h24v46h22v68h24v46h20v42h24v46h22v68h24v68h20v68h22v22h24v44h22v46h360v-24h46v-112h-24v24 h-46v-24h-44v-20h-88v-46h-24v-24h24v-224h-24v-68h24v-112h-24v-202h24v-90h-24v-24h24v-66h-24v-112h24v-46h-24v-44h24v-46h20v-24h68v-20h68v-24h22v-22h24v-66h-24v-24h-90v-22h-68v22h-336v24h-22v20h-24v22h24v46h22v24h66v20h46v24h24v450h20v316h-20v156h-24v-44 h-22v-22h-24v-46h-22v-44h-20v-46h-24v-24h-22v-66h-24v-68h-20v-22h-24v-46h-22v-44h-24v-46h-20v-20h-24v-46h-22v-24h-46v24h-24v22h-20v24h-22v44h-24v22h-20v68h-24v44h-22v44h-24v46h-20v44h-24v46h-22v46h-24v44h-22v46h-68v-158h-22v-68h22v-22h-22v-270h22v-270h24 v-68h20v-22h24v-24h92v-20h44v-70h22v-22h-22v-20h-24v-24h-448v24h-24v88h24v24h20v20h46v24h24v22h22v362h24v720h-24v20h-46v24h-112v66h-24z" />
<glyph unicode="N" horiz-adv-x="1324" d="M44 70v22h22v24h24v22h22v24h24v20h20v24h46v1080h-22v24h-114v20h-22v112h22v24h136v-24h202v-22h24v-44h20v-46h24v-44h22v-22h24v-68h20v-46h22v-22h24v-44h20v-46h24v-44h22v-46h24v-22h22v-24h24v-44h20v-46h24v-44h22v-22h24v-46h20v-20h24v-46h22v-44h20v-24h24 v-22h22v-46h46v-24h24v564h-24v180h-22v46h-24v22h-88v24h-44v20h-46v90h22v22h472v-22h22v-90h-22v-20h-46v-24h-44v-112h-22v-70h22v-110h-22v-450h22v-518h-22v-22h-44v-24h-70v24h-20v22h-24v24h-22v42h-24v46h-22v44h-24v46h-20v44h-22v46h-24v70h-20v20h-24v66h-22v24 h-24v46h-20v22h-24v44h-22v46h-24v44h-22v24h-24v44h-20v44h-24v46h-22v24h-20v44h-24v46h-22v44h-24v22h-20v46h-46v20h-24v-42h-22v-608h22v-202h24v-46h22v-24h68v-20h88v-24h24v-22h20v-90h-132v-22h-360v22h-46v44h-22z" />
<glyph unicode="O" horiz-adv-x="1256" d="M44 520v382h22v160h24v42h20v70h24v22h22v68h24v22h20v24h22v44h44v22h24v24h46v20h22v22h44v24h90v22h66v24h70v-24h136v-22h90v-24h42v-22h24v-20h22v-24h44v-22h24v-44h22v-24h24v-22h20v-24h24v-44h22v-68h24v-44h20v-90h24v-112h22v-272h-22v-112h-24v-110h-20v-46 h-24v-46h-22v-44h-24v-46h-20v-24h-46v-20h-24v-24h-20v-22h-24v-24h-22v-22h-46v-20h-44v-24h-136v-22h-202v22h-90v24h-44v20h-46v22h-46v24h-20v22h-24v44h-22v24h-20v22h-24v44h-22v24h-24v68h-20v66h-24v90h-22zM246 544h20v-90h24v-66h22v-46h24v-46h22v-24h24v-20h20 v-24h24v-22h46v-24h44v-20h66v-24h68v24h90v20h44v24h46v22h24v24h20v44h22v22h24v46h22v44h24v90h20v158h24v202h-24v136h-20v90h-24v20h-22v46h-24v46h-22v44h-20v24h-46v22h-44v24h-46v20h-68v24h-92v-24h-66v-20h-66v-24h-24v-22h-20v-24h-24v-44h-22v-46h-24v-46h-22 v-66h-24v-90h-20v-404z" />
<glyph unicode="P" horiz-adv-x="1256" d="M44 1370v70h24v24h22v22h794v-22h116v-24h24v-22h48v-22h22v-26h24v-22h22v-46h26v-26h22v-46h24v-278h-24v-48h-22v-46h-26v-48h-22v-24h-24v-22h-22v-26h-48v-22h-46v-22h-46v-24h-94v-22h-70v-26h-280v-68h-22v-350h22v-48h46v-24h162v-22h48v-26h24v-68h-24v-22h-70 v-26h-162v26h-72v-26h-324v26h-26v90h26v26h22v22h116v24h24v22h22v1098h-22v48h-46v24h-116v-24h-48v46h-24zM488 786h24v-22h232v22h94v24h46v22h48v48h22v24h24v48h22v208h-22v48h-24v22h-22v24h-22v22h-26v26h-46v22h-48v24h-94v-24h-22v24h-162v-24h-24v-538z" />
<glyph unicode="Q" horiz-adv-x="1300" d="M44 530v444h24v94h22v68h26v46h22v26h24v46h22v22h22v26h26v22h22v24h24v22h22v26h24v22h22v22h72v24h94v22h210v-22h116v-24h46v-22h48v-22h22v-26h24v-22h46v-24h22v-48h26v-22h22v-46h24v-48h22v-46h26v-68h22v-72h24v-420h-24v-118h-22v-70h-26v-46h-22v-48h-24v-22 h-22v-24h-26v-48h-22v-22h-24v-24h-46v-22h-22v-48h-48v-24h-22v-70h22v-22h22v-24h26v-22h22v-24h24v-48h22v-22h24v-24h22v-22h26v-26h22v-22h72v22h46v-22h44v-116h-44v-24h-72v-22h-46v-26h-48v-22h-68v22h-24v48h-22v46h-26v48h-22v22h-22v46h-24v26h-22v46h-26v48h-46 v46h-48v46h-46v22h-46v26h-164v22h-46v22h-22v24h-48v22h-24v26h-46v22h-22v46h-26v26h-22v22h-22v46h-24v48h-22v46h-26v70h-22v94h-24zM232 506h22v-92h24v-48h22v-46h24v-48h22v-22h26v-24h22v-22h24v-26h22v-22h48v-24h68v-22h166v22h68v24h26v22h22v26h46v46h22v22h26 v48h22v68h24v94h22v48h24v396h-24v72h-22v70h-24v68h-22v46h-26v26h-22v46h-46v22h-70v26h-46v22h-26v24h-162v-24h-46v-22h-48v-26h-46v-22h-22v-24h-26v-48h-22v-22h-24v-70h-22v-44h-24v-94h-22v-446z" />
<glyph unicode="R" horiz-adv-x="1440" d="M44 1370v70h22v24h24v22h138v-22h46v22h72v-22h210v22h94v-22h234v-24h68v-22h22v-22h26v-26h22v-22h24v-24h22v-22h26v-48h22v-94h24v-162h-24v-72h-22v-46h-26v-22h-22v-48h-46v-24h-26v-22h-46v-26h-44v-22h-46v-22h-48v-46h22v-26h48v-22h24v-24h22v-22h22v-24h24 v-24h22v-46h26v-24h22v-22h24v-48h22v-46h26v-22h22v-48h24v-46h22v-48h48v-24h46v-22h116v-26h24v-68h-24v-48h-304v26h-22v22h-24v22h-22v46h-26v26h-22v46h-24v22h-22v48h-22v46h-24v48h-22v46h-26v48h-22v46h-24v46h-48v24h-22v46h-24v24h-22v22h-48v26h-24v22h-138v-22 h-24v-492h24v-24h48v-22h136v-26h48v-68h-22v-22h-538v22h-22v68h22v26h26v22h68v24h46v1146h-24v22h-22v24h-46v-24h-22v24h-72v22h-22zM416 832h24v-22h326v22h46v26h26v22h22v24h24v22h22v72h22v162h-22v70h-22v24h-24v22h-48v26h-22v22h-94v24h-234v-24h-22v-48h-24 v-444z" />
<glyph unicode="S" horiz-adv-x="1116" d="M44 38v328h24v48h22v22h94v-48h22v-68h26v-70h22v-46h24v-26h22v-22h48v-24h46v-22h282v22h46v24h46v22h22v26h22v22h26v24h22v94h24v70h-24v68h-22v48h-26v24h-22v22h-22v24h-46v22h-72v26h-68v22h-72v24h-116v22h-68v22h-48v26h-24v22h-48v24h-46v22h-22v48h-26v24h-22 v48h-22v68h-24v94h24v94h22v46h22v48h26v46h22v22h46v26h26v22h22v22h46v24h72v22h68v26h328v-26h210v-22h22v-68h26v-26h-26v-68h26v-48h-26v-24h26v-94h-26v-46h-22v-22h-46v-22h-26v22h-46v46h-22v116h-26v24h-22v48h-46v22h-22v24h-94v22h-188v-22h-68v-24h-24v-22h-22 v-26h-26v-22h-22v-46h-24v-162h24v-48h22v-46h26v-26h22v-22h70v-24h70v-22h46v-26h94v-22h116v-24h46v-22h48v-26h46v-22h22v-22h26v-24h22v-22h24v-26h22v-22h26v-70h22v-70h24v-140h-24v-70h-22v-46h-26v-48h-22v-24h-24v-22h-22v-26h-26v-22h-22v-24h-46v-22h-48v-22 h-68v-26h-396v26h-120v-26h-94v26h-44v44h-24z" />
<glyph unicode="T" horiz-adv-x="1324" d="M44 1208v94h22v138h26v24h1140v-24h26v-44h22v-350h-22v-48h-116v48h-26v208h-22v22h-24v26h-68v22h-164v-22h-72v-26h-22v-444h22v-46h-22v-116h22v-48h-22v-256h22v-116h-22v-46h22v-48h48v-24h68v-22h166v-26h22v-22h24v-46h-24v-48h-116v-22h-24v22h-630v116h22v26 h72v22h94v24h70v22h22v1098h-22v26h-94v22h-94v-22h-70v-26h-24v-22h-22v-24h-24v-140h-22v-92h-48v-24h-68v46h-26v188h-22z" />
<glyph unicode="U" d="M44 1370v94h46v22h232v-22h140v22h24v-22h70v-24h22v-22h-22v-48h-22v-22h-94v-24h-24v-70h-22v-490h22v-514h24v-24h22v-22h24v-26h22v-22h48v-24h46v-22h188v22h94v24h44v22h24v26h22v22h26v46h22v210h24v24h-24v748h-22v70h-48v24h-68v22h-24v26h-24v44h24v24h442v-24 h22v-92h-46v-24h-68v-48h-22v-94h-26v-910h-22v-68h-24v-48h-22v-46h-26v-26h-22v-22h-46v-24h-26v-22h-68v-22h-46v-26h-374v26h-46v22h-46v22h-48v24h-24v22h-22v48h-26v46h-22v72h-24v1052h-22v22h-22v24h-94v22h-46z" />
<glyph unicode="V" horiz-adv-x="1416" d="M44 1396v68h22v22h210v26h186v-26h120v-46h22v-22h-22v-48h-120v-22h-46v-46h-22v-26h22v-116h24v-70h22v-92h26v-72h22v-68h24v-48h22v-94h26v-68h22v-94h22v-48h24v-70h22v-70h24v-68h24v-26h24v-22h22v48h24v46h22v70h26v68h22v94h24v46h22v94h26v94h22v94h22v70h24 v94h22v114h26v142h-26v24h-116v22h-22v94h22v22h444v-22h22v-116h-22v-24h-46v-22h-48v-48h-22v-72h-24v-68h-22v-68h-26v-72h-22v-70h-24v-72h-22v-68h-24v-70h-22v-94h-26v-70h-22v-70h-24v-72h-22v-90h-22v-72h-26v-70h-22v-72h-24v-46h-22v-22h-26v-22h-22v-26h-118v26 h-22v44h-24v72h-22v46h-22v70h-26v46h-22v94h-24v48h-22v68h-26v72h-22v68h-24v72h-22v44h-26v72h-22v70h-24v72h-22v68h-24v70h-22v70h-22v70h-26v46h-22v26h-24v22h-48v24h-22v22h-24v26h-22z" />
<glyph unicode="W" horiz-adv-x="1628" d="M44 1348v116h68v22h282v-22h22v22h46v-22h120v-24h22v-70h-116v-22h-72v-46h-22v-26h22v-186h24v-258h22v-184h26v-212h22v-70h24v-22h22v22h26v48h22v46h24v70h22v70h22v94h24v44h22v48h26v72h22v46h94v-24h24v-22h22v-72h26v-48h22v-68h24v-48h22v-92h22v-48h24v-46h22 v-22h26v-26h22v26h24v46h22v210h26v188h22v418h-22v26h-26v22h-22v24h-118v22h-22v70h22v24h166v22h396v-116h-72v-22h-46v-24h-48v-70h-22v-164h-24v-116h-22v-236h-22v-116h-24v-162h-22v-210h-26v-118h-22v-70h-24v-46h-22v-48h-120v26h-22v22h-24v68h-22v72h-22v48h-24 v68h-22v72h-26v70h-22v68h-24v48h-22v24h-72v-48h-22v-70h-26v-48h-22v-68h-24v-70h-22v-94h-22v-94h-24v-46h-22v-22h-26v-26h-94v26h-22v22h-24v68h-22v120h-26v116h-22v140h-24v210h-22v116h-22v188h-24v162h-22v140h-26v26h-22v22h-46v24h-94z" />
<glyph unicode="X" horiz-adv-x="1440" d="M44 38v94h46v24h94v22h22v26h24v22h22v24h26v48h22v22h24v46h22v48h26v22h22v46h24v24h22v24h26v46h22v24h24v22h22v72h22v22h24v94h-24v70h-22v24h-22v48h-24v22h-22v24h-26v48h-22v22h-24v46h-22v46h-26v22h-22v48h-24v46h-22v26h-26v22h-22v24h-92v22h-48v142h256v-26 h210v-22h24v-24h22v-44h-22v-26h-68v-22h-46v-72h22v-68h24v-26h22v-46h22v-46h24v-22h22v-48h26v-22h22v-46h24v-26h70v26h24v22h22v24h26v48h22v44h24v24h22v68h22v48h24v118h-68v22h-46v94h22v22h350v26h46v-26h68v-22h26v-94h-26v-22h-22v-24h-92v-22h-22v-26h-26v-22 h-22v-24h-24v-48h-22v-22h-26v-46h-22v-24h-24v-44h-22v-26h-26v-46h-22v-22h-24v-48h-22v-24h-22v-48h-24v-46h-22v-22h22v-48h24v-46h22v-48h22v-22h24v-46h22v-24h26v-24h22v-46h24v-46h22v-26h26v-44h22v-24h24v-48h22v-46h26v-22h22v-48h46v-24h116v-22h24v-48h22v-46 h-46v-22h-420v22h-46v22h-22v94h44v24h46v94h-22v70h-24v24h-22v70h-22v22h-24v24h-22v46h-26v24h-22v24h-24v46h-48v22h-22v-22h-24v-46h-22v-24h-26v-48h-22v-46h-24v-48h-22v-22h-22v-46h-24v-48h-22v-46h-26v-70h72v-24h68v-94h-24v-22h-44v-22h-422v22h-22v22h-24z" />
<glyph unicode="Y" d="M44 1370v116h46v26h162v-26h70v26h118v-26h116v-46h24v-22h-24v-22h-22v-26h-94v-22h-24v-46h24v-48h22v-46h24v-48h22v-24h26v-46h22v-22h24v-48h22v-46h22v-48h26v-22h22v-24h24v-48h70v48h24v24h22v22h24v48h24v46h24v48h22v46h24v46h22v22h22v94h26v26h-26v46h-68v22 h-46v26h-24v68h24v22h350v26h70v-26h44v-90h-22v-26h-22v-22h-70v-46h-22v-26h-26v-22h-22v-46h-24v-48h-22v-46h-26v-24h-22v-22h-24v-70h-22v-24h-26v-48h-22v-22h-22v-46h-24v-48h-22v-24h-24v-48h-24v-44h-24v-72h-22v-68h22v-350h24v-48h210v-24h48v-22h22v-48h-22v-46 h-72v-22h-48v22h-162v-22h-188v22h-208v46h-22v22h22v48h46v24h118v22h22v26h22v444h-22v46h-22v22h-24v70h-22v24h-26v22h-22v48h-24v24h-22v48h-24v46h-22v22h-26v48h-22v46h-24v22h-22v46h-26v26h-22v46h-22v22h-24v48h-22v24h-94v22h-46z" />
<glyph unicode="Z" horiz-adv-x="1208" d="M44 16v162h22v48h26v24h22v22h22v48h24v24h22v44h26v26h22v22h24v46h22v24h24v24h22v46h26v24h22v22h24v48h22v24h26v22h22v48h22v22h24v24h22v48h26v22h22v24h24v48h22v22h24v24h22v48h26v22h22v22h24v46h22v24h26v48h22v46h22v22h24v72h-444v-24h-68v-22h-26v-26h-46 v-68h-22v-72h-24v-46h-116v24h-22v234h22v116h22v22h24v26h234v-26h628v-22h48v-24h24v-116h-24v-48h-22v-22h-26v-46h-22v-26h-24v-22h-22v-24h-24v-46h-22v-22h-26v-22h-22v-48h-24v-24h-22v-22h-22v-48h-26v-24h-22v-48h-24v-22h-22v-24h-26v-48h-22v-22h-24v-22h-22v-46 h-24v-26h-22v-22h-26v-46h-22v-24h-24v-48h-22v-46h-22v-22h-26v-26h-22v-44h-24v-24h-22v-48h-26v-22h-22v-46h-24v-48h46v-24h398v24h140v22h48v26h22v22h24v24h22v48h24v68h22v48h120v-48h22v-162h-22v-142h-26v-68h-22v-26h-186v26h-700v-26h-94v26h-48v22h-22z" />
<glyph unicode="\" horiz-adv-x="876" d="M44 1490v90h24v24h20v22h92v-22h24v-44h20v-70h22v-44h24v-68h20v-66h24v-68h22v-68h24v-44h20v-70h24v-66h22v-66h24v-70h22v-44h24v-66h20v-92h24v-66h22v-44h20v-46h24v-70h22v-66h24v-66h20v-70h24v-44h22v-46h24v-66h22v-70h24v-66h20v-90h24v-66h-24v-24h-20v-22 h-24v22h-68v24h-24v20h-20v92h-24v90h-22v66h-24v70h-20v90h-22v44h-24v46h-20v88h-24v44h-22v70h-24v66h-22v46h-24v66h-20v70h-24v44h-22v66h-24v70h-20v88h-24v44h-22v46h-20v68h-24v46h-22v66h-24v66h-22v46h-24v46h-20v44h-24z" />
<glyph unicode="^" horiz-adv-x="488" d="M44 1660l18 34l-12 6l150 254l12 -6l4 8l12 -6l4 8l12 -6l12 6l4 -8l12 6l4 -8l12 6l150 -254l-12 -6l18 -34l-22 -14l4 -6l-56 -34l-4 8l-10 -6l-6 8l-12 -6l-38 64l12 8l-68 114l-68 -114l12 -8l-38 -64l-12 6l-6 -8l-10 6l-4 -8l-56 34l4 6z" />
<glyph unicode="_" horiz-adv-x="1504" d="M44 -462h24v24h44v20h136v-20h876v20h66v-20h70v20h132v-20h44v-46h24v-90h-24v-22h-1144v22h-114v-22h-20v22h-90v22h-24v90z" />
<glyph unicode="`" horiz-adv-x="552" d="M44 1856l18 30l-10 6l42 74l12 -6l8 14l12 -6l8 16l86 -52l-8 -16l152 -90l10 16l110 -64l-10 -16l32 -18l-8 -14l10 -8l-52 -90l-12 6l-8 -14l-12 6l-8 -16l-338 200l10 16z" />
<glyph unicode="a" horiz-adv-x="1212" d="M44 188v158h24v44h20v46h24v24h22v22h44v24h46v20h44v24h68v22h90v24h134v20h24v-20h112v20h66v24h24v22h22v180h-22v22h-24v24h-20v22h-46v22h-180v-22h-46v-22h-44v-24h-22v-22h-24v-68h-20v-22h-24v-24h-112v24h-22v22h-24v114h24v44h46v22h44v24h44v22h44v20h114v24 h314v-24h44v-20h46v-22h24v-24h22v-22h24v-44h20v-248h-20v-472h86v20h70v-20h20v-24h24v-66h-24v-24h-90v-22h-66v-24h-156v24h-24v22h-46v24h-44v-24h-66v-22h-92v-24h-312v24h-46v22h-44v24h-46v20h-24v46h-20v44h-24zM224 234h24v-46h44v-20h44v-24h134v-22h24v22h112 v24h46v20h44v24h46v22h20v46h24v180h-24v22h-312v-22h-70v-24h-44v-22h-44v-24h-24v-20h-20v-46h-24v-90z" />
<glyph unicode="b" horiz-adv-x="1256" d="M44 1404v24h22v44h44v22h114v24h66v20h136v-20h22v-46h24v-24h-24v-222h-22v-226h22v-22h68v22h112v20h226v-20h66v-22h46v-24h24v-22h44v-22h22v-22h20v-24h24v-46h22v-20h24v-46h20v-44h24v-136h22v-158h-22v-90h-24v-66h-20v-46h-24v-24h-22v-20h-24v-24h-20v-22h-22 v-24h-24v-20h-44v-24h-22v-22h-70v-24h-66v-22h-292v22h-134v-22h-112v22h-24v452h24v832h-24v44h-22v22h-134v24h-24v22h-22zM426 212h22v-24h24v-20h20v-24h90v-22h182v22h44v24h46v20h20v24h46v46h24v22h22v44h24v46h20v136h24v66h-24v68h-20v44h-24v44h-22v24h-24v22 h-22v24h-24v20h-20v24h-70v22h-246v-22h-46v-24h-44v-44h-22v-562z" />
<glyph unicode="c" horiz-adv-x="1120" d="M44 390v160h20v134h24v44h22v46h24v44h22v24h24v22h20v24h24v22h22v22h20v22h46v24h24v22h66v20h70v24h292v-24h66v-20h44v-22h24v-24h22v-22h20v-22h24v-46h22v-112h24v-44h-24v-46h-22v-22h-110v22h-46v46h-24v134h-20v22h-24v24h-68v22h-180v-22h-44v-24h-46v-22h-22 v-24h-24v-20h-20v-24h-24v-22h-22v-44h-24v-68h-20v-250h20v-66h24v-20h22v-46h24v-24h20v-22h46v-24h46v-20h114v-24h132v24h136v20h44v24h66v22h116v-22h20v-68h-20v-22h-24v-24h-46v-20h-66v-24h-46v-22h-110v-24h-70v-22h-268v22h-90v24h-70v22h-20v24h-22v20h-24v24 h-20v22h-24v24h-22v44h-24v46h-22v66h-24v66h-20z" />
<glyph unicode="d" horiz-adv-x="1214" d="M44 346v270h24v68h22v68h24v46h20v20h24v24h22v22h24v24h20v22h22v22h46v22h44v24h46v22h360v-22h66v66h24v46h-24v136h24v66h-24v44h-66v22h-114v90h24v24h46v22h110v24h70v20h112v-66h20v-90h-20v-90h20v-66h-20v-992h20v-46h114v-20h46v-90h-24v-24h-90v-22h-66v-24 h-136v24h-112v-24h-90v-22h-292v22h-44v24h-46v22h-24v24h-42v20h-24v24h-22v22h-24v44h-20v24h-24v46h-22v88h-24zM224 436h22v-90h24v-42h22v-24h24v-46h20v-22h24v-24h22v-20h44v-24h158v-22h44v22h90v24h46v20h24v24h20v202h24v314h-24v90h-44v24h-46v22h-66v24h-156 v-24h-70v-22h-44v-24h-46v-44h-20v-22h-24v-24h-22v-44h-24v-68h-22v-180z" />
<glyph unicode="e" horiz-adv-x="1144" d="M44 370v202h20v112h24v44h22v46h24v44h22v24h24v22h20v46h22v22h24v22h44v24h46v22h44v20h46v24h314v-24h44v-20h46v-22h24v-24h42v-22h24v-22h20v-22h24v-46h22v-24h24v-44h22v-66h24v-182h-24v-20h-68v-24h-584v-22h-114v-24h-20v-66h20v-46h24v-44h22v-22h24v-24h20 v-22h46v-24h46v-20h90v-24h180v24h136v20h66v24h66v22h90v-22h24v-68h-24v-22h-20v-24h-46v-20h-46v-24h-90v-22h-90v-24h-112v-22h-224v22h-92v24h-66v22h-44v24h-24v20h-22v24h-44v22h-22v44h-24v24h-22v46h-24v112h-20zM266 596h362v20h202v24h24v44h20v24h-20v44h-24v22 h-22v24h-24v44h-44v22h-22v24h-70v22h-176v-22h-46v-24h-24v-22h-22v-24h-24v-20h-20v-24h-24v-22h-22v-44h-24v-112z" />
<glyph unicode="f" horiz-adv-x="1164" d="M44 18v70h20v20h46v24h156v22h46v24h24v650h-24v24h-46v22h-156v24h-22v20h-24v24h24v44h46v24h156v20h22v182h24v90h20v44h24v46h22v22h24v24h20v20h46v24h24v22h42v24h90v20h180v-20h248v-24h24v-22h20v-24h-20v-90h-46v-22h-24v-24h-156v24h-112v22h-180v-22h-46v-24 h-20v-20h-24v-46h-22v-226h22v-20h24v-24h358v24h90v-24h46v-88h-24v-24h-66v-22h-24v22h-360v-22h-44v-654h24v-44h20v-22h248v-24h68v24h44v-24h44v-90h-20v-22h-92v-24h-20v24h-744v22h-20z" />
<glyph unicode="g" horiz-adv-x="1212" d="M44 -160h22v66h24v24h20v42h24v24h22v22h24v46h22v24h-22v110h22v46h20v24h24v20h22v46h24v22h-24v24h-22v20h-24v24h-20v46h-22v20h-24v70h-22v202h22v66h24v46h22v24h20v20h46v24h24v22h44v22h66v24h248v-24h68v-22h68v-22h44v-24h272v-20h20v-46h24v-24h-24v-20h-20 v-24h-160v-22h-22v-24h22v-178h-22v-46h-24v-44h-20v-46h-22v-24h-24v-20h-44v-24h-46v-22h-66v-24h-202v-22h-46v-20h-24v-24h-20v-22h-24v-44h-22v-24h46v-22h336v-24h22v24h136v-24h134v-20h46v-24h22v-22h24v-24h44v-22h22v-226h-22v-44h-24v-46h-20v-20h-24v-24h-22 v-22h-46v-22h-24v-24h-44v-20h-66v-24h-66v-22h-116v-24h-176v24h-206v22h-66v24h-44v20h-46v24h-22v22h-24v46h-20v20h-24v70h-22v90zM202 -138v-112h20v-46h24v-24h22v-20h44v-24h114v-22h112v-22h22v22h180v22h70v24h66v20h44v24h22v22h24v24h20v20h24v136h-24v24h-20v22 h-46v20h-44v24h-564v-24h-20v-20h-24v-22h-22v-24h-24v-44h-20zM292 560h20v-46h24v-24h22v-20h24v-24h66v-22h202v22h44v24h46v44h24v46h22v178h-22v46h-24v44h-22v24h-44v22h-46v24h-180v-24h-46v-22h-44v-24h-22v-44h-24v-46h-20v-178z" />
<glyph unicode="h" horiz-adv-x="1372" d="M44 1368v46h24v24h46v20h90v24h46v22h86v24h70v-24h22v-22h24v-114h-24v-156h-22v-68h22v-68h-22v-112h22v-66h24v20h90v24h20v22h66v22h46v24h250v-24h66v-22h22v-22h24v-24h20v-20h24v-24h22v-46h24v-66h20v-90h24v-136h-24v-428h136v-20h46v-70h-24v-22h-22v-24h-358 v24h-46v92h46v20h20v24h22v248h24v268h-24v68h-22v46h-20v22h-24v24h-22v20h-44v24h-182v-24h-66v-20h-68v-24h-46v-22h-20v-24h-24v-22h-22v-518h22v-66h44v-24h114v-20h42v-70h-20v-22h-226v-24h-178v24h-44v112h44v24h22v22h24v966h20v70h-20v90h-24v22h-46v20h-90v24 h-22v22h-24z" />
<glyph unicode="i" horiz-adv-x="1100" d="M44 46v24h24v44h22v22h226v24h44v20h46v676h-70v24h-156v-24h-90v24h-22v22h-24v66h24v24h178v20h204v24h88v-24h46v-66h24v-66h-24v-700h24v-20h44v-24h358v-22h46v-90h-22v-24h-44v-22h-114v22h-720v-22h-42v22h-46v46h-24zM360 1238v136h22v46h24v20h20v24h46v22h112 v-22h44v-24h24v-20h22v-136h-22v-22h-24v-24h-20v-20h-24v-24h-46v-22h-66v22h-66v24h-24v20h-22z" />
<glyph unicode="j" horiz-adv-x="920" d="M44 -314h24v46h20v22h24v24h66v-24h46v-22h44v-24h22v-22h46v-24h44v-20h160v20h44v24h22v22h22v24h44v156h24v46h-24v112h24v68h-24v720h-268v22h-68v24h-22v22h-24v24h24v42h46v24h358v20h90v-20h24v-24h20v-606h24v-158h-24v-90h24v-44h-24v-24h24v-248h-24v-112h-20 v-44h-46v-24h-24v-22h-20v-20h-46v-24h-68v-22h-158v-24h-66v24h-156v22h-90v24h-46v20h-24v22h-20v24h-24v44zM494 1284v46h22v66h24v24h20v20h46v24h156v-24h24v-20h22v-46h24v-24h-24v-66h-22v-22h-24v-24h-20v-20h-24v-24h-46v-22h-66v22h-46v24h-44v66h-22z" />
<glyph unicode="k" horiz-adv-x="1392" d="M44 1396v24h22v20h24v24h110v22h46v24h90v20h66v-20h46v-272h-22v-674h22v-22h44v22h24v24h22v20h24v22h46v24h20v22h22v24h24v20h20v24h24v22h22v24h24v20h20v70h-20v22h-24v66h24v24h404v-24h24v-22h20v-44h-20v-22h-70v-24h-46v-22h-44v-24h-46v-20h-42v-24h-24v-22 h-20v-24h-46v-20h-24v-24h-22v-22h-24v-24h-20v-88h20v-24h24v-44h22v-22h24v-24h22v-46h24v-20h20v-24h24v-22h22v-24h20v-20h24v-22h22v-46h24v-24h44v-20h22v-24h70v24h132v-46h24v-24h-24v-44h-42v-22h-24v-24h-66v-22h-136v22h-46v24h-24v22h-20v24h-22v20h-24v24h-20 v22h-24v24h-22v20h-24v24h-22v46h-24v22h-20v44h-24v22h-22v44h-24v24h-20v22h-24v46h-42v24h-24v-24h-22v-22h-24v-24h-22v-22h-24v-24h-20v-20h-24v-24h-22v-158h22v-44h24v-22h90v-24h46v-20h20v-46h-20v-24h-316v-22h-92v22h-20v24h-24v46h24v44h44v22h22v136h24v20h-24 v70h24v20h-24v136h24v112h-24v90h24v24h-24v46h24v358h-24v182h-156v20h-24v46h-22z" />
<glyph unicode="l" horiz-adv-x="1056" d="M44 1350v90h22v24h90v22h156v24h116v20h132v-20h24v-180h20v-24h-20v-516h-24v-248h24v-160h-24v-178h24v-44h44v-24h292v-22h46v-24h22v-20h24v-24h-24v-46h-68v-22h-114v22h-378v-22h-92v22h-246v90h22v24h20v22h226v24h24v20h22v136h-22v66h22v948h-22v20h-160v-20 h-156v20h-22z" />
<glyph unicode="m" horiz-adv-x="1552" d="M44 880v46h24v42h66v24h116v20h90v-20h42v-24h24v24h90v20h112v24h24v-24h86v-20h46v-24h46v-22h68v22h46v24h90v20h202v-20h44v-24h22v-22h24v-44h20v-22h24v-70h22v-404h-22v-246h22v-24h46v-22h66v-44h24v-24h-24v-46h-338v24h-20v22h-24v24h24v20h20v24h24v66h22v610 h-22v44h-44v46h-182v-24h-20v-22h-24v-24h-22v-650h22v-24h24v-22h66v-44h24v-24h-24v-46h-314v24h-24v66h24v24h22v22h20v136h24v448h-24v70h-20v20h-22v46h-24v24h-156v-24h-24v-22h-46v-24h-20v-20h-24v-630h24v-24h20v-22h92v-24h24v-20h20v-24h-20v-22h-24v-24h-314v24 h-46v90h22v22h24v24h22v650h-22v24h-136v46h-24z" />
<glyph unicode="n" d="M44 880v66h22v22h44v24h114v20h134v-20h24v-24h20v-42h90v20h24v22h46v24h88v20h68v24h202v-24h24v-20h42v-24h46v-22h24v-20h20v-24h24v-46h22v-66h24v-630h22v-24h114v-22h42v-114h-42v-22h-182v22h-224v46h-22v24h22v20h24v24h20v22h24v24h22v268h20v202h-20v114h-22 v46h-24v20h-20v24h-24v22h-46v24h-156v-24h-46v-22h-66v-24h-46v-20h-68v-46h-22v-202h-24v-250h24v-132h22v-24h114v-22h46v-24h20v-20h22v-24h-22v-22h-20v-24h-428v24h-24v22h-22v24h22v44h24v22h44v24h22v674h-22v22h-158v24h-22z" />
<glyph unicode="o" horiz-adv-x="1168" d="M44 362v292h24v66h20v46h24v44h22v24h24v46h22v22h44v24h22v20h24v22h44v24h46v20h44v24h92v22h156v-22h112v-24h68v-20h66v-24h22v-22h24v-20h20v-24h24v-22h22v-46h24v-24h22v-44h24v-46h20v-112h24v-156h-24v-70h-20v-110h-24v-46h-22v-22h-24v-24h-22v-20h-24v-24 h-20v-22h-46v-24h-24v-20h-20v-24h-46v-22h-44v-24h-92v-22h-222v22h-70v24h-66v22h-44v24h-24v20h-46v24h-20v22h-22v24h-24v44h-22v46h-24v66h-20v46h-24zM224 428h22v-90h24v-22h20v-44h24v-22h22v-24h24v-22h20v-24h24v-20h46v-24h66v-22h136v22h66v24h46v20h44v24h24 v22h22v46h20v44h24v46h22v90h24v112h-24v90h-22v46h-24v20h-20v70h-22v20h-24v24h-20v22h-46v24h-46v22h-270v-22h-46v-24h-20v-22h-24v-24h-22v-20h-24v-46h-20v-68h-24v-88h-22v-160z" />
<glyph unicode="p" horiz-adv-x="1212" d="M44 884v66h24v22h44v24h112v22h44v24h46v-24h46v-22h20v-24h24v24h90v22h66v24h248v-24h44v-22h68v-24h44v-22h24v-20h22v-24h24v-22h20v-24h24v-44h22v-22h24v-70h20v-156h24v-180h-24v-46h-20v-46h-24v-42h-22v-44h-24v-24h-20v-22h-24v-24h-22v-22h-24v-22h-20v-22 h-68v-24h-44v-22h-114v-24h-158v24h-134v-44h-22v-226h22v-90h44v-22h112v-24h24v-66h-46v-22h-402v22h-46v66h22v24h68v22h22v68h20v1080h-20v24h-22v20h-134v24h-24zM380 502h24v-226h22v-66h24v-24h44v-22h46v-24h202v24h44v22h46v24h20v20h24v24h22v42h22v46h24v46h20 v270h-20v46h-24v20h-22v24h-22v22h-24v24h-20v22h-24v24h-22v20h-44v24h-248v-24h-44v-20h-24v-46h-22v-248h-24v-44z" />
<glyph unicode="q" horiz-adv-x="1168" d="M44 388v246h24v90h20v70h24v22h22v44h22v24h24v22h20v24h24v20h22v22h44v24h46v22h90v24h246v-24h70v-22h112v22h20v24h24v20h66v-20h24v-158h-24v-1192h24v-24h46v-22h90v-90h-68v-22h-338v22h-46v44h-20v22h44v24h46v22h22v24h24v20h20v292h-20v24h-182v-24h-134v24 h-68v22h-68v24h-46v22h-44v22h-46v22h-20v24h-24v46h-22v20h-22v46h-24v66h-20v46h-24zM224 432h22v-66h24v-46h20v-44h24v-22h22v-24h24v-20h20v-24h46v-22h90v-24h202v24h46v22h24v24h20v606h-20v24h-24v20h-22v24h-204v22h-22v-22h-66v-24h-46v-20h-24v-24h-44v-22h-22 v-46h-24v-24h-20v-44h-24v-66h-22v-182z" />
<glyph unicode="r" horiz-adv-x="1212" d="M44 884v88h24v24h132v22h136v24h114v-46h20v-24h24v-66h22v-46h44v24h46v22h22v24h24v20h44v22h46v24h44v22h46v24h88v20h68v-20h90v-24h46v-22h20v-24h24v-112h-24v-20h-20v-24h-204v24h-68v20h-20v-20h-90v-24h-46v-22h-44v-24h-24v-22h-22v-24h-24v-20h-22v-24h-24 v-22h-20v-472h20v-22h24v-24h338v-22h22v-44h24v-24h-24v-22h-22v-24h-226v24h-20v-24h-474v24h-20v22h-24v68h24v22h110v24h46v22h22v44h24v362h-24v42h24v24h-24v182h-22v20h-46v24h-68v-24h-112v-20h-20v44h-24z" />
<glyph unicode="s" horiz-adv-x="1008" d="M44 164v66h20v24h-20v42h20v46h24v24h90v-24h22v-22h24v-66h22v-44h24v-24h20v-22h46v-24h44v-22h248v22h44v24h46v22h20v44h24v136h-24v22h-42v24h-68v20h-90v24h-178v22h-70v24h-44v20h-46v24h-22v22h-24v24h-20v42h-24v46h-22v114h22v66h24v24h20v22h24v24h22v20h24 v22h22v24h44v22h46v24h134v20h112v-20h90v-24h182v-22h20v-24h24v-88h22v-114h-22v-66h-44v-24h-24v24h-68v44h-24v46h-20v66h-22v24h-68v22h-248v-22h-44v-24h-22v-20h-24v-46h-20v-70h20v-44h24v-22h22v-24h66v-20h160v-22h134v-24h66v-22h46v-24h46v-20h20v-24h24v-22h22 v-24h24v-66h20v-156h-20v-24h-24v-22h-22v-46h-24v-22h-20v-22h-46v-24h-24v-22h-46v-24h-132v-20h-204v20h-132v24h-24v-24h-112v24h-24v22h-22v24h-24v90h-20z" />
<glyph unicode="t" horiz-adv-x="1080" d="M44 906v66h22v24h136v22h24v44h20v182h46v24h90v-24h22v-46h24v-22h-24v-134h24v-24h90v-22h44v22h358v24h24v-24h22v-22h24v-90h-46v-22h-134v22h-24v-22h-404v-180h-22v-518h22v-22h22v-24h24v-22h224v22h158v24h66v22h114v-22h46v-68h-24v-22h-46v-24h-46v-22h-66v-24 h-114v-20h-202v-24h-110v24h-68v20h-44v24h-46v46h-24v22h-20v44h-24v518h24v202h-46v24h-114v22h-22z" />
<glyph unicode="u" d="M44 906v24h22v42h44v24h158v22h114v-22h20v-248h-20v-406h20v-66h24v-22h22v-44h24v-24h44v-22h68v-24h200v24h46v22h66v24h24v20h22v24h24v562h-24v24h-22v20h-112v24h-24v66h24v22h112v24h112v22h68v-22h22v-66h24v-114h-24v-586h24v-20h46v-24h110v-46h22v-44h-22v-22 h-90v-24h-44v-22h-68v-24h-68v24h-46v22h-20v24h-70v-24h-66v-22h-66v-24h-114v-20h-134v20h-68v24h-46v22h-20v24h-24v22h-46v44h-20v24h-24v66h-22v136h-24v22h24v114h-24v20h24v112h-24v90h24v70h-24v46h-22v20h-110v24h-24v22h-22z" />
<glyph unicode="v" horiz-adv-x="1384" d="M44 930v42h24v24h20v22h362v-22h90v-24h22v-66h-68v-22h-44v-68h20v-68h24v-44h22v-70h24v-42h22v-46h20v-68h24v-46h22v-44h24v-46h20v-46h24v-20h22v-22h24v-44h20v20h24v24h22v22h24v66h22v46h24v68h20v46h22v66h24v66h20v46h24v44h22v160h-66v22h-90v44h-22v22h22v24 h44v22h358v24h68v-52h16v-50h-16l2 -56h-90v-24h-22v-44h-24v-22h-20v-70h-24v-66h-22v-44h-24v-68h-22v-44h-24v-46h-20v-24h-24v-66h-22v-24h-24v-66h-20v-66h-24v-46h-22v-46h-20v-44h-24v-24h-22v-46h-24v-20h-136v20h-20v24h-24v46h-22v22h-24v68h-20v46h-22v44h-24v42 h-22v46h-24v46h-20v68h-24v22h-22v68h-24v46h-20v66h-24v46h-22v44h-24v68h-20v44h-24v24h-158v22h-20v24h-24z" />
<glyph unicode="w" horiz-adv-x="1544" d="M44 940v52h16v50h428v-24h90v-88h-24v-24h-156v-22h-24v-160h24v-90h22v-88h24v-68h20v-90h24v-46h22v-66h24v20h20v24h24v46h22v66h24v90h22v70h20v42h24v70h22v20h44v24h46v-24h24v-20h20v-46h24v-44h22v-68h24v-68h22v-46h24v-66h20v-24h22v-46h24v46h44v90h22v70h24 v90h22v88h22v114h22v66h-22v24h-22v22h-158v24h-20v20h-24v22h24v46h42v24h428v-24h22v-22h22v-24h24v-22h-24v-20h-22v-24h-44v-22h-46v-44h-24v-46h-20v-136h-22v-90h-24v-46h-20v-66h-24v-68h-22v-112h-24v-46h-22v-90h-22v-44h-22v-46h-24v-22h-22v-24h-110v24h-24v46 h-22v44h-24v46h-22v66h-24v90h-20v68h-24v68h-66v-68h-24v-46h-22v-88h-24v-68h-20v-68h-22v-44h-24v-24h-22v-46h-114v24h-20v22h-24v46h-22v68h-24v66h-20v90h-24v68h-22v68h-22v66h-24v70h-20v88h-24v90h-22v46h-24v44h-44v24h-68v56h-16z" />
<glyph unicode="x" horiz-adv-x="1348" d="M44 902v68h24v20h22v24h338v-24h110v-44h24v-22h-24v-22h-20v-22h-22v-22h-24v-70h46v-44h20v-22h24v-24h22v-20h24v-24h44v-22h22v22h46v24h24v20h20v24h24v22h22v24h24v20h20v70h-20v22h-46v22h-24v22h-20v22h20v24h24v20h404v-20h20v-90h-110v-22h-46v-24h-20v-22h-24 v-24h-22v-20h-46v-24h-24v-46h-20v-20h-24v-46h-22v-24h-20v-22h-24v-110h24v-24h20v-22h22v-24h24v-22h20v-44h46v-24h24v-22h22v-44h24v-22h20v-24h24v-22h22v-24h44v-20h90v-24h22v-22h24v-44h22v-24h-22v-22h-472v22h-22v90h66v24h22v66h-22v24h-20v22h-24v44h-22v22 h-24v24h-20v20h-24v24h-22v22h-90v-22h-24v-44h-22v-24h-44v-46h-22v-20h-24v-22h-20v-46h-24v-24h24v-44h86v-22h24v-44h-24v-46h-424v22h-24v90h24v24h66v20h66v24h24v22h22v24h24v22h20v20h24v46h22v24h46v44h24v22h20v24h24v22h22v114h-22v42h-24v24h-20v22h-24v24h-22 v20h-24v24h-22v22h-24v24h-20v20h-24v24h-22v22h-24v24h-44v22h-134v22h-24z" />
<glyph unicode="y" horiz-adv-x="1300" d="M44 924v22h24v44h134v24h22v-24h46v24h44v-24h180v-20h46v-68h-24v-22h-66v-22h-24v-90h24v-46h20v-44h24v-46h22v-46h24v-44h22v-46h20v-20h24v-70h22v-46h24v-20h20v-24h46v24h24v20h20v70h24v66h22v46h24v44h22v68h22v68h22v66h22v70h-22v22h-112v22h-24v22h-20v22h20 v44h202v24h136v-24h24v24h90v-24h22v-44h20v-22h-20v-44h-68v-22h-68v-24h-22v-46h-24v-66h-20v-68h-24v-46h-22v-66h-24v-46h-20v-66h-24v-24h-22v-66h-22v-46h-22v-44h-22v-68h-24v-24h-22v-44h-24v-46h-20v-20h-24v-70h-22v-46h-24v-42h-20v-44h-24v-70h-22v-46h-24v-20 h-20v-46h-22v-44h-46v-24h-24v-22h-44v-22h-22v-22h-90v-22h-90v22h-66v22h-24v22h-22v66h22v46h24v24h132v-24h114v24h46v44h20v46h24v22h22v44h24v46h22v44h20v46h24v46h22v66h-22v44h-24v46h-20v46h-22v44h-24v22h-22v44h-24v46h-20v24h-24v46h-22v20h-24v46h-20v66h-24 v46h-22v44h-24v46h-20v44h-24v46h-22v24h-22v22h-134v44h-24z" />
<glyph unicode="z" horiz-adv-x="1056" d="M44 114v24h24v20h22v46h22v24h24v22h20v20h24v24h22v22h24v24h20v20h24v24h22v22h24v24h44v46h22v20h24v24h22v22h20v24h24v20h22v22h24v24h20v22h46v24h24v20h20v24h24v46h22v20h46v46h24v24h-24v22h-404v-22h-46v-46h-24v-44h-20v-70h-46v-20h-44v20h-24v46h-22v24h22 v134h24v68h20v20h24v24h472v-24h178v24h114v-24h22v-20h24v-68h-24v-44h-22v-24h-24v-22h-20v-24h-24v-20h-22v-24h-24v-22h-20v-24h-24v-20h-22v-24h-20v-22h-24v-24h-22v-22h-24v-20h-22v-24h-24v-22h-20v-24h-24v-20h-22v-24h-24v-22h-20v-24h-46v-22h-24v-44h-20v-24 h-46v-22h-22v-24h-24v-20h-20v-22h-24v-90h44v-24h136v24h22v-24h158v24h112v20h46v24h20v22h24v24h22v42h24v46h44v24h46v-24h22v-178h-22v-90h-24v-24h-22v-22h-788v22h-66v24h-22v66h-24z" />
<glyph unicode="&#xa1;" horiz-adv-x="424" d="M44 18v44h24v158h20v156h24v180h22v408h24v66h44v22h44v-22h24v-24h20v-112h24v-428h22v-178h24v-68h20v-226h-20v-68h-24v-20h-22v-24h-24v-22h-132v22h-46v24h-24v44h-20v68h-24zM44 1256v20h24v92h20v20h24v24h46v22h66v24h46v-24h44v-22h22v-24h24v-20h20v-182h-20 v-20h-24v-24h-22v-22h-44v-24h-92v24h-20v22h-24v24h-22v20h-24v24h-20v46h-24z" />
<glyph unicode="&#xa2;" horiz-adv-x="1080" d="M44 348v338h24v68h22v44h24v44h22v24h20v46h24v22h22v22h44v22h24v24h22v22h44v24h92v20h44v24h22v42h24v92h20v24h24v20h66v-20h24v-70h22v-88h24v-24h46v-20h86v-24h46v-22h24v-24h20v-22h24v-44h22v-114h24v-22h-24v-66h-22v-24h-68v24h-46v22h-20v22h-22v68h-24v66 h-20v24h-24v22h-268v-22h-46v-24h-24v-22h-46v-24h-20v-20h-24v-46h-22v-22h-24v-68h-20v-268h20v-46h24v-44h22v-24h24v-22h20v-24h24v-22h46v-24h22v-20h336v20h90v24h66v22h46v24h24v-24h46v-90h-24v-22h-22v-24h-46v-20h-44v-22h-70v-24h-86v-22h-70v-24h-46v-20h-20 v-46h-24v-180h-22v-66h-24v-24h-66v24h-20v20h-24v272h-22v44h-70v22h-44v24h-46v22h-20v20h-24v24h-22v22h-24v24h-20v20h-22v46h-24v46h-22v44h-24z" />
<glyph unicode="&#xa6;" horiz-adv-x="312" d="M44 26v506h24v230l200 -14v-764h-22v-24h-22v-22h-136v22h-20v66h-24zM44 1308v176h24v24h20v22h112v-22h46v-90h22v-550h-200v440h-24z" />
<glyph unicode="&#xa8;" horiz-adv-x="844" d="M44 1692v136h24v22h20v24h70v20h22v-20h66v-24h24v-22h20v-136h-20v-44h-24v-22h-66v-24h-22v24h-70v46h-20v20h-24zM554 1738v70h24v42h44v24h46v20h20v-20h68v-24h24v-22h20v-156h-20v-24h-24v-22h-22v-24h-90v24h-46v46h-20v66h-24z" />
<glyph unicode="&#xaa;" horiz-adv-x="740" d="M44 986v106h16v16h50v18h174v-18h242v18h136v-18h18v-16h16v-88h-16v-34h-70v-18h-532v18h-18v16h-16zM77 1358q-1 12 1 20t10 14q2 2 3 7t3 9t6 6q4 18 8 20t8 8t8 6q2 2 -2 8l-4 2q8 2 12 2h12q4 -2 2 4l-2 4q4 2 9 3t11 1q8 -2 2 6q0 2 10 4h6q6 -2 6 2q10 8 22 10h8 q8 -2 8 2q4 4 8 6t8 2h26l-2 4q-2 6 0 8h70q2 6 11 9t17 1t12 -10q4 -2 8 -1t9 1t9 -2q4 16 32 12q-2 4 1 8t7 4t8 4l6 6v60l-10 12q-12 -6 -14 8q2 2 -2 5t-6 5q-18 4 -22 12q-8 2 -30 2h-30q-2 -2 -4 -5t-5 -5t-7 -3t-8 1q-6 -14 -18 -12q-4 2 -6 -2q0 -2 -2 -4l-16 -14 q0 -22 -4 -28q-2 -2 -5 -6t-6 -7t-7 -3q0 -2 2 -6t2 -6h-38q-4 0 -15 -1t-19 0t-14 7q0 2 -6 6l-6 8q-2 2 -6 -1t-6 -1v70q-4 18 8 18h2q2 2 2 6q-4 8 4 14t18 4q2 6 8 9t12 1q2 6 9 10t13 2q6 12 22 10l4 4q4 6 8 6q0 2 19 1t21 -1q4 0 4 5t4 7h158q16 0 22 -10 q18 0 22 -12h4q12 0 16 -6q0 -4 6 -8q4 -2 6 -2q0 -4 2 -6l8 -8q0 -4 6 0q4 2 6 2q2 -12 2 -22l4 -2q4 2 6 0v-112q0 -2 1 -14t-1 -18t-10 -10v-198q0 -4 2 -5t7 0t7 1q8 16 22 10q8 -2 14 0t13 0t11 -10q10 -8 10 -12q18 -4 14 -26q-2 -2 0 -14t-4 -16l-4 -4l-2 -4 q-2 -8 -16 -10q-20 -2 -32 0q-2 -6 -7 -9t-12 -3t-13 2l2 -6q2 -4 2 -6h-74q-2 0 -10 -1t-14 0t-10 7q2 4 -2 6l-6 4l-4 4q-2 0 -9 1t-11 3h-6q-8 -2 -12 -2l-4 -2l-2 2q-6 0 -8 -4t-6 -5t-9 -2t-9 -1t-9 1t-7 1q-2 -2 0 -6t2 -6h-160q-18 -6 -26 12q-14 -4 -22 8 q-20 0 -24 14q-6 -2 -12 1t-8 9q-8 0 -12 8t0 16q-2 2 -12 -6v26q-8 -4 -12 -4v60q0 4 -1 16zM196 1338q14 -4 14 -22q8 0 13 -2t7 -8q18 0 22 -12h104q4 18 24 12q2 6 8 9t12 1q6 14 18 12q4 -2 7 3t7 7q0 4 1 8t3 8t6 6q2 8 2 18v40q0 2 -5 5t-7 5q-16 2 -60 2h-66 q-8 -12 -22 -12l-4 2q-8 2 -8 -2q2 -18 -22 -10q-2 0 4 -12l-24 2q-4 -10 -8 -12l-8 -6l-4 -4q-8 -22 -12 -22q-2 -2 -1 -8t-1 -8z" />
<glyph unicode="&#xab;" horiz-adv-x="1224" d="M44 564v96l14 6l-10 20l452 336l10 -20l58 30l24 -38l10 8l58 -96l-14 -6l10 -18l-14 -10l10 -20l-108 -64l-14 20l-234 -196l234 -196l14 20l108 -64l-10 -20l14 -10l-10 -18l14 -6l-58 -96l-10 8l-24 -38l-58 30l-10 -20l-452 336l10 20zM564 564v96l14 6l-10 20 l452 336l10 -20l58 30l24 -38l10 8l58 -96l-14 -6l10 -18l-14 -10l10 -20l-108 -64l-14 20l-234 -196l234 -196l14 20l108 -64l-10 -20l14 -10l-10 -18l14 -6l-58 -96l-10 8l-24 -38l-58 30l-10 -20l-452 336l10 20z" />
<glyph unicode="&#xad;" horiz-adv-x="940" d="M44 576v136h22v20h66v24h226v-24h316v24h176v-24h24v-20h22v-112h-22v-46h-90v-22h-694v22h-24v22h-22z" />
<glyph unicode="&#xb0;" horiz-adv-x="460" d="M45 1843q-1 9 2 13t11 2q2 2 1 15t5 15q8 -2 10 1t1 12t-1 11q2 4 10 8t4 14q6 2 12 1t12 0t6 7q-2 4 1 6t7 2t7 2t-1 10v4h168q-4 -12 1 -15t17 -1h8q10 0 14 -2t2 -12q18 0 18 -18q10 4 11 -6t9 -8q6 0 7 -6t-1 -13t0 -11q8 4 11 0t3 -8v-22q0 -12 2 -16t12 -2v-78 q2 -6 0 -11t-5 -7t-9 -4q0 -2 1 -11t-1 -14t-10 -3q-6 0 -4 -14t-2 -16q-10 4 -12 -2q-4 -14 -6 -14q-6 0 -8 -3t-2 -7t-3 -6t-9 2q-4 -18 -18 -18q-12 6 -13 -5t-9 -9t-13 1t-7 -5t0 -12h-108q-12 -4 -14 6t-6 10h-8q-10 0 -14 2t-2 10q-2 4 -15 3t-13 5q2 6 0 8t-6 2t-8 2 t-2 8q0 4 -6 6t-8 4t0 12q6 12 -5 14t-9 6v8q0 10 -2 15t-12 1v120q0 2 -1 11zM126 1758q0 -6 8 -8q12 -2 6 -14q10 4 12 0t3 -10t5 -6q8 4 10 -7t10 -7q6 4 10 1t5 -4t2 -6t3 -7q2 0 18 -1t16 3q-2 4 -2 8q2 6 24 6q22 -4 22 14q4 2 12 1t12 0t4 9q-2 12 0 18t14 4v64 q-14 2 -16 18q-8 -2 -11 1t-2 13t1 12q0 4 -10 6t-6 14h-104q0 -14 -18 -16q4 -8 2 -11t-6 -3t-7 -2t-3 -8q2 -12 0 -18t-14 -4v-60z" />
<glyph unicode="&#xb1;" horiz-adv-x="1112" d="M44 674v70h14v26h14v18h90v14h282v374h16v16h30v12h82v-12h16v-16h16v-14h12v-278h-12v-52h12v-14h16v-16h358v-14h14v-18h14v-96h-14v-30h-60v-14h-66v14h-22v-14h-68v14h-154l-18 -14v-106h-12v-64h12v-190h-12v-14h-30l-18 -14v-14h-66v14h-30v28h-16v346h-14v14h-60 v14q-74 2 -152 8t-148 6l-12 16h-14zM50 40v94h16v14h46v18h158v-18h642v18h122v-18h18v-14h16v-78h-16v-32h-64v-16h-906v16h-16v16h-16z" />
<glyph unicode="&#xb4;" horiz-adv-x="552" d="M44 1718l10 6l-8 14l32 20l-10 16l110 64l10 -16l152 90l-8 16l86 50l8 -16l12 8l8 -14l12 6l42 -76l-10 -6l18 -30l-44 -26l10 -16l-338 -198l-8 16l-12 -6l-8 14l-12 -6z" />
<glyph unicode="&#xba;" horiz-adv-x="740" d="M44 986v106h16v16h50v18h174v-18h242v18h136v-18h18v-16h16v-88h-16v-34h-70v-18h-532v18h-18v16h-16zM90 1378v202h22v44h24v46h20v24h46v20h24v24h246v-24h66v-20h24v-24h22v-22h24v-44h20v-70h22v-132h-22v-46h-20v-46h-24v-24h-22v-20h-24v-24h-44v-22h-46v-24h-178 v24h-44v22h-46v24h-24v20h-20v46h-24v46h-22zM202 1422h24v-20h20v-24h24v-22h42v-24h70v24h66v22h46v44h24v112h-24v24h-22v46h-24v20h-178v-20h-24v-24h-20v-46h-24v-112z" />
<glyph unicode="&#xbb;" horiz-adv-x="1224" d="M44 318l14 6l-10 18l14 10l-10 20l108 64l14 -20l234 196l-234 196l-14 -20l-108 64l10 20l-14 10l10 18l-14 6l58 96l10 -8l24 38l58 -30l10 20l452 -336l-10 -20l14 -6v-96l-14 -6l10 -20l-452 -336l-10 20l-58 -30l-24 38l-10 -8zM564 318l14 6l-10 18l14 10l-10 20 l108 64l14 -20l234 196l-234 196l-14 -20l-108 64l10 20l-14 10l10 18l-14 6l58 96l10 -8l24 38l58 -30l10 20l452 -336l-10 -20l14 -6v-96l-14 -6l10 -20l-452 -336l-10 20l-58 -30l-24 38l-10 -8z" />
<glyph unicode="&#xbc;" horiz-adv-x="1348" d="M44 322v66h22v24h24v22h46v20h44v24h66v22h46v24h44v22h22v24h46v20h68v24h46v22h20v24h46v20h90v24h22v22h24v24h44v22h46v20h44v24h42v22h46v24h46v20h44v24h46v22h44v24h112v-24h24v-46h-24v-20h-22v-24h-44v-22h-46v-24h-44v-20h-46v-22h-44v-24h-46v-22h-46v-24h-42 v-20h-44v-24h-24v-22h-66v-24h-46v-20h-46v-24h-44v-22h-24v-24h-42v-22h-46v-24h-68v-20h-46v-22h-46v-24h-44v-20h-22v-24h-44v-22h-46v-24h-44v-22h-22v22h-24v24h-22zM156 1468v44h24v46h178v24h160v-24h20v-66h22v-112h-22v-382h22v-46h44v-24h160v-22h22v-90h-564v22 h-42v90h42v24h160v22h22v406h-22v44h-114v-22h-66v22h-22v44h-24zM538 50h22v68h24v24h20v44h24v46h22v66h24v24h22v66h24v46h20v20h24v24h90v-24h22v-42h-22v-44h-24v-46h-20v-46h-24v-68h-22v-46h-24v-44h-20v-88h246v20h22v158h24v68h20v22h46v-22h24v-24h20v-156h24v-46 h22v-20h90v-24h22v-22h24v-68h-24v-46h-112v-20h-22v-70h-24v-42h-20v-24h-70v24h-20v20h-24v68h-22v44h-46v24h-24v-24h-292v24h-20v22h-24v24h-22v110z" />
<glyph unicode="&#xbd;" horiz-adv-x="1256" d="M44 332v92h24v20h44v24h68v22h44v24h22v20h68v24h46v22h46v24h20v22h70v22h42v22h44v24h24v22h46v20h46v24h20v22h46v24h44v22h46v22h44v22h68v24h44v22h24v24h46v20h20v24h90v-24h22v-90h-42v-22h-24v-22h-66v-22h-46v-24h-44v-22h-46v-24h-46v-20h-44v-22h-46v-24h-44 v-22h-46v-22h-44v-22h-22v-24h-46v-22h-44v-24h-66v-20h-24v-24h-46v-22h-66v-24h-46v-20h-44v-24h-24v-22h-46v-22h-42v-24h-24v-20h-66v20h-24zM134 1456v70h24v22h132v24h182v-24h24v-22h20v-564h46v-20h156v-24h24v-22h22v-46h-22v-22h-562v22h-22v68h42v24h160v44h22 v384h-22v66h-90v-24h-90v24h-22v20h-24zM472 -140h24v44h20v24h22v22h44v24h24v22h68v24h44v20h24v22h46v24h44v20h22v24h20v22h46v24h24v22h22v24h24v110h-24v24h-22v22h-90v22h-22v-22h-134v-22h-24v-24h-22v-44h-24v-46h-22v-20h-24v-24h-66v44h-20v46h20v68h22v44h24v24 h20v20h46v24h46v22h68v24h202v-24h66v-22h46v-24h24v-20h20v-24h24v-44h22v-44h24v-70h-24v-44h-22v-46h-24v-22h-20v-24h-46v-20h-24v-24h-44v-22h-22v-20h-70v-24h-42v-22h-24v-24h-44v-22h-22v-24h-24v-20h24v-24h268v24h46v20h44v24h70v-24h20v-110h-20v-46h-46v-24h-68 v24h-182v-24h-336v24h-42v22h-24v90z" />
<glyph unicode="&#xbf;" horiz-adv-x="852" d="M44 106v182h20v66h24v46h22v44h24v22h22v24h24v20h20v24h24v22h22v24h20v46h24v20h22v22h24v44h20v46h24v160h22v20h114v-20h22v-136h-22v-70h-24v-44h-20v-22h-24v-44h-22v-46h-46v-46h-24v-20h-20v-24h-24v-46h-22v-44h-24v-46h-20v-178h20v-70h24v-44h46v-22h202v22 h24v24h20v44h22v182h24v20h20v22h116v-22h20v-20h24v-160h-24v-22h-20v-44h-24v-46h-22v-24h-24v-42h-46v-24h-44v-22h-22v-24h-66v-20h-180v20h-90v24h-22v22h-44v24h-24v22h-22v20h-24v24h-22v22h-24v68h-20zM246 1210v66h20v46h24v44h46v22h202v-22h24v-24h20v-156h-20 v-22h-24v-44h-46v-24h-44v-22h-68v22h-44v24h-46v44h-24v46h-20z" />
<glyph unicode="&#xc0;" horiz-adv-x="1480" d="M44 26h44v-22h226v22h246v24h22v66h-22v22h-134v24h-22v20h-24v90h24v70h22v88h24v24h42v20h160v-20h312v-24h24v-22h22v-44h24v-68h20v-68h24v-66h-24v-24h-66v-22h-90v-24h-24v-66h70v-22h472v22h20v90h-44v22h-66v24h-46v44h-24v46h-20v44h-24v68h-22v44h-24v90h-22 v46h-20v46h-24v90h-22v44h-24v44h-20v44h-24v70h-22v66h-24v68h-20v68h-24v66h-22v68h-24v68h-22v44h-24v70h-20v42h-22v24h-24v22h-66v-22h-24v-24h-44v-88h-22v-90h-24v-46h-22v-68h-24v-66h-20v-90h-24v-68h-22v-44h-20v-70h-24v-44h-22v-44h-24v-90h-20v-44h-24v-46h-22 v-46h-24v-68h-22v-66h-24v-68h-20v-24h-24v-66h-22v-24h-24v-20h-42v-24h-44v-22h-24v-90zM304 1784l18 30l-10 6l42 74l12 -6l8 14l12 -6l8 16l86 -52l-8 -16l152 -90l10 16l110 -64l-10 -16l32 -18l-8 -14l10 -8l-52 -90l-12 6l-8 -14l-12 6l-8 -16l-338 200l10 16z M516 610v114h20v44h24v68h22v46h24v90h22v44h24v68h20v44h46v22h24v-46h20v-42h24v-68h22v-46h20v-66h24v-70h22v-88h24v-44h22v-70h-46v-20h-338v20h-20z" />
<glyph unicode="&#xc1;" horiz-adv-x="1480" d="M44 26v90h24v22h44v24h42v20h24v24h22v66h24v24h20v68h24v66h22v68h24v46h22v46h24v44h20v90h24v44h22v44h24v70h20v44h22v68h24v90h20v66h24v68h22v46h24v90h22v88h44v24h24v22h66v-22h24v-24h22v-42h20v-70h24v-44h22v-68h24v-68h22v-66h24v-68h20v-68h24v-66h22v-70 h24v-44h20v-44h24v-44h22v-90h24v-46h20v-46h22v-90h24v-44h22v-68h24v-44h20v-46h24v-44h46v-24h66v-22h44v-90h-20v-22h-472v22h-70v66h24v24h90v22h66v24h24v66h-24v68h-20v68h-24v44h-22v22h-24v24h-312v20h-160v-20h-42v-24h-24v-88h-22v-70h-24v-90h24v-20h22v-24h134 v-22h22v-66h-22v-24h-246v-22h-226v22h-44zM516 610h20v-20h338v20h46v70h-22v44h-24v88h-22v70h-24v66h-20v46h-22v68h-24v42h-20v46h-24v-22h-46v-44h-20v-68h-24v-44h-22v-90h-24v-46h-22v-68h-24v-44h-20v-114zM660 1646l10 6l-8 14l32 20l-10 16l110 64l10 -16l152 90 l-8 16l86 50l8 -16l12 8l8 -14l12 6l42 -76l-10 -6l18 -30l-44 -26l10 -16l-338 -198l-8 16l-12 -6l-8 14l-12 -6z" />
<glyph unicode="&#xc2;" horiz-adv-x="1480" d="M44 26v90h24v22h44v24h42v20h24v24h22v66h24v24h20v68h24v66h22v68h24v46h22v46h24v44h20v90h24v44h22v44h24v70h20v44h22v68h24v90h20v66h24v68h22v46h24v90h22v88h44v24h24v22h66v-22h24v-24h22v-42h20v-70h24v-44h22v-68h24v-68h22v-66h24v-68h20v-68h24v-66h22v-70 h24v-44h20v-44h24v-44h22v-90h24v-46h20v-46h22v-90h24v-44h22v-68h24v-44h20v-46h24v-44h46v-24h66v-22h44v-90h-20v-22h-472v22h-70v66h24v24h90v22h66v24h24v66h-24v68h-20v68h-24v44h-22v22h-24v24h-312v20h-160v-20h-42v-24h-24v-88h-22v-70h-24v-90h24v-20h22v-24h134 v-22h22v-66h-22v-24h-246v-22h-226v22h-44zM516 610h20v-20h338v20h46v70h-22v44h-24v88h-22v70h-24v66h-20v46h-22v68h-24v42h-20v46h-24v-22h-46v-44h-20v-68h-24v-44h-22v-90h-24v-46h-22v-68h-24v-44h-20v-114zM530 1584l18 34l-12 6l150 254l12 -6l4 8l12 -6l4 8l12 -6 l12 6l4 -8l12 6l4 -8l12 6l150 -254l-12 -6l18 -34l-22 -14l4 -6l-56 -34l-4 8l-10 -6l-6 8l-12 -6l-38 64l12 8l-68 114l-68 -114l12 -8l-38 -64l-12 6l-6 -8l-10 6l-4 -8l-56 34l4 6z" />
<glyph unicode="&#xc4;" horiz-adv-x="1480" d="M44 26h44v-22h226v22h246v24h22v66h-22v22h-134v24h-22v20h-24v90h24v70h22v88h24v24h42v20h160v-20h312v-24h24v-22h22v-44h24v-68h20v-68h24v-66h-24v-24h-66v-22h-90v-24h-24v-66h70v-22h472v22h20v90h-44v22h-66v24h-46v44h-24v46h-20v44h-24v68h-22v44h-24v90h-22 v46h-20v46h-24v90h-22v44h-24v44h-20v44h-24v70h-22v66h-24v68h-20v68h-24v66h-22v68h-24v68h-22v44h-24v70h-20v42h-22v24h-24v22h-66v-22h-24v-24h-44v-88h-22v-90h-24v-46h-22v-68h-24v-66h-20v-90h-24v-68h-22v-44h-20v-70h-24v-44h-22v-44h-24v-90h-20v-44h-24v-46h-22 v-46h-24v-68h-22v-66h-24v-68h-20v-24h-24v-66h-22v-24h-24v-20h-42v-24h-44v-22h-24v-90zM356 1626v136h24v22h20v24h70v20h22v-20h66v-24h24v-22h20v-136h-20v-44h-24v-22h-66v-24h-22v24h-70v46h-20v20h-24zM516 610v114h20v44h24v68h22v46h24v90h22v44h24v68h20v44h46 v22h24v-46h20v-42h24v-68h22v-46h20v-66h24v-70h22v-88h24v-44h22v-70h-46v-20h-338v20h-20zM866 1672v70h24v42h44v24h46v20h20v-20h68v-24h24v-22h20v-156h-20v-24h-24v-22h-22v-24h-90v24h-46v46h-20v66h-24z" />
<glyph unicode="&#xc7;" horiz-adv-x="1168" d="M44 544v314h24v90h20v68h24v68h22v44h24v46h22v22h24v44h20v24h24v22h22v24h24v20h20v24h22v22h44v24h24v20h46v22h66v24h248v-24h114v-22h202v-20h20v-46h24v-44h-24v-226h24v-46h-24v-22h-20v-22h-92v22h-20v46h-24v112h-22v44h-24v22h-20v24h-24v22h-46v24h-268v-24 h-44v-22h-46v-24h-24v-22h-22v-22h-24v-46h-20v-22h-24v-44h-22v-68h-20v-90h-24v-202h-22v-68h22v-182h24v-86h20v-70h22v-22h24v-44h20v-24h24v-22h22v-24h46v-20h44v-24h46v-22h202v22h44v24h46v20h24v24h20v46h24v20h22v92h24v66h20v24h22v20h70v-20h44v-292h-24v-24 h-20v-22h-24v-24h-46v-22h-22v-20h-44v-24h-46v-22h-90v-24h-20l38 -142l-8 -4l38 -148l-20 -6l4 -20l-16 -4l4 -18l-90 -26l-6 18l-36 -10l-20 78l-20 -6l-62 268h-8v20h-114v24h-68v22h-44v24h-46v20h-20v22h-24v24h-22v22h-24v24h-20v44h-24v22h-22v24h-24v66h-22v46h-24 v66h-20v114h-24z" />
<glyph unicode="&#xc8;" horiz-adv-x="1236" d="M44 1354h22v-24h24v-20h112v-24h44v-1104h-20v-20h-24v-24h-68v-22h-44v-24h-24v-42h24v-24h20v-22h946v-24h46v24h44v22h22v24h24v314h-24v44h-22v22h-68v-22h-22v-66h-24v-90h-22v-46h-24v-24h-42v-20h-90v-24h-406v24h-22v44h-24v450h24v24h22v44h160v-24h66v-20h20 v-46h24v-44h22v-46h24v-24h66v406h24v22h-24v46h-20v22h-46v-22h-24v-68h-22v-44h-24v-46h-246v22h-22v68h-24v68h24v292h22v24h338v-24h134v-22h46v-46h20v-114h24v-42h92v22h20v66h24v114h22v90h-22v66h-24v22h-1056v-22h-22v-66zM324 1778l18 30l-10 6l42 74l12 -6l8 14 l12 -6l8 16l86 -52l-8 -16l152 -90l10 16l110 -64l-10 -16l32 -18l-8 -14l10 -8l-52 -90l-12 6l-8 -14l-12 6l-8 -16l-338 200l10 16z" />
<glyph unicode="&#xc9;" horiz-adv-x="1236" d="M44 1354v66h22v22h1056v-22h24v-66h22v-90h-22v-114h-24v-66h-20v-22h-92v42h-24v114h-20v46h-46v22h-134v24h-338v-24h-22v-292h-24v-68h24v-68h22v-22h246v46h24v44h22v68h24v22h46v-22h20v-46h24v-22h-24v-406h-66v24h-24v46h-22v44h-24v46h-20v20h-66v24h-160v-44 h-22v-24h-24v-450h24v-44h22v-24h406v24h90v20h42v24h24v46h22v90h24v66h22v22h68v-22h22v-44h24v-314h-24v-24h-22v-22h-44v-24h-46v24h-946v22h-20v24h-24v42h24v24h44v22h68v24h24v20h20v1104h-44v24h-112v20h-24v24h-22zM376 1646l10 6l-8 14l32 20l-10 16l110 64 l10 -16l152 90l-8 16l86 50l8 -16l12 8l8 -14l12 6l42 -76l-10 -6l18 -30l-44 -26l10 -16l-338 -198l-8 16l-12 -6l-8 14l-12 -6z" />
<glyph unicode="&#xca;" horiz-adv-x="1236" d="M44 1354v66h22v22h1056v-22h24v-66h22v-90h-22v-114h-24v-66h-20v-22h-92v42h-24v114h-20v46h-46v22h-134v24h-338v-24h-22v-292h-24v-68h24v-68h22v-22h246v46h24v44h22v68h24v22h46v-22h20v-46h24v-22h-24v-406h-66v24h-24v46h-22v44h-24v46h-20v20h-66v24h-160v-44 h-22v-24h-24v-450h24v-44h22v-24h406v24h90v20h42v24h24v46h22v90h24v66h22v22h68v-22h22v-44h24v-314h-24v-24h-22v-22h-44v-24h-46v24h-946v22h-20v24h-24v42h24v24h44v22h68v24h24v20h20v1104h-44v24h-112v20h-24v24h-22zM448 1588l18 34l-12 6l150 254l12 -6l4 8l12 -6 l4 8l12 -6l12 6l4 -8l12 6l4 -8l12 6l150 -254l-12 -6l18 -34l-22 -14l4 -6l-56 -34l-4 8l-10 -6l-6 8l-12 -6l-38 64l12 8l-68 114l-68 -114l12 -8l-38 -64l-12 6l-6 -8l-10 6l-4 -8l-56 34l4 6z" />
<glyph unicode="&#xcb;" horiz-adv-x="1236" d="M44 1354h22v-24h24v-20h112v-24h44v-1104h-20v-20h-24v-24h-68v-22h-44v-24h-24v-42h24v-24h20v-22h946v-24h46v24h44v22h22v24h24v314h-24v44h-22v22h-68v-22h-22v-66h-24v-90h-22v-46h-24v-24h-42v-20h-90v-24h-406v24h-22v44h-24v450h24v24h22v44h160v-24h66v-20h20 v-46h24v-44h22v-46h24v-24h66v406h24v22h-24v46h-20v22h-46v-22h-24v-68h-22v-44h-24v-46h-246v22h-22v68h-24v68h24v292h22v24h338v-24h134v-22h46v-46h20v-114h24v-42h92v22h20v66h24v114h22v90h-22v66h-24v22h-1056v-22h-22v-66zM260 1636v136h24v22h20v24h70v20h22v-20 h66v-24h24v-22h20v-136h-20v-44h-24v-22h-66v-24h-22v24h-70v46h-20v20h-24zM770 1682v70h24v42h44v24h46v20h20v-20h68v-24h24v-22h20v-156h-20v-24h-24v-22h-22v-24h-90v24h-46v46h-20v66h-24z" />
<glyph unicode="&#xcc;" horiz-adv-x="1080" d="M44 1330h24v-20h158v-24h180v-22h22v-68h24v-92h-24v-898h-22v-44h-46v-24h-68v24h-112v-24h-44v-22h-22v-66h22v-24h20v-22h834v22h46v66h-24v24h-22v22h-316v24h-46v20h-20v654h-24v66h24v362h20v22h202v24h114v66h22v24h-22v20h-24v22h-156v24h-20v-24h-676v-42h-24 v-70zM110 1774l18 30l-10 6l42 74l12 -6l8 14l12 -6l8 16l86 -52l-8 -16l152 -90l10 16l110 -64l-10 -16l32 -18l-8 -14l10 -8l-52 -90l-12 6l-8 -14l-12 6l-8 -16l-338 200l10 16z" />
<glyph unicode="&#xcd;" horiz-adv-x="1080" d="M44 1330v70h24v42h676v24h20v-24h156v-22h24v-20h22v-24h-22v-66h-114v-24h-202v-22h-20v-362h-24v-66h24v-654h20v-20h46v-24h316v-22h22v-24h24v-66h-46v-22h-834v22h-20v24h-22v66h22v22h44v24h112v-24h68v24h46v44h22v898h24v92h-24v68h-22v22h-180v24h-158v20h-24z M434 1646l10 6l-8 14l32 20l-10 16l110 64l10 -16l152 90l-8 16l86 50l8 -16l12 8l8 -14l12 6l42 -76l-10 -6l18 -30l-44 -26l10 -16l-338 -198l-8 16l-12 -6l-8 14l-12 -6z" />
<glyph unicode="&#xce;" horiz-adv-x="1080" d="M44 1330v70h24v42h676v24h20v-24h156v-22h24v-20h22v-24h-22v-66h-114v-24h-202v-22h-20v-362h-24v-66h24v-654h20v-20h46v-24h316v-22h22v-24h24v-66h-46v-22h-834v22h-20v24h-22v66h22v22h44v24h112v-24h68v24h46v44h22v898h24v92h-24v68h-22v22h-180v24h-158v20h-24z M312 1600l18 34l-12 6l150 254l12 -6l4 8l12 -6l4 8l12 -6l12 6l4 -8l12 6l4 -8l12 6l150 -254l-12 -6l18 -34l-22 -14l4 -6l-56 -34l-4 8l-10 -6l-6 8l-12 -6l-38 64l12 8l-68 114l-68 -114l12 -8l-38 -64l-12 6l-6 -8l-10 6l-4 -8l-56 34l4 6z" />
<glyph unicode="&#xcf;" horiz-adv-x="1080" d="M44 1330h24v-20h158v-24h180v-22h22v-68h24v-92h-24v-898h-22v-44h-46v-24h-68v24h-112v-24h-44v-22h-22v-66h22v-24h20v-22h834v22h46v66h-24v24h-22v22h-316v24h-46v20h-20v654h-24v66h24v362h20v22h202v24h114v66h22v24h-22v20h-24v22h-156v24h-20v-24h-676v-42h-24 v-70zM146 1634v136h24v22h20v24h70v20h22v-20h66v-24h24v-22h20v-136h-20v-44h-24v-22h-66v-24h-22v24h-70v46h-20v20h-24zM656 1680v70h24v42h44v24h46v20h20v-20h68v-24h24v-22h20v-156h-20v-24h-24v-22h-22v-24h-90v24h-46v46h-20v66h-24z" />
<glyph unicode="&#xd1;" horiz-adv-x="1324" d="M44 70v22h22v24h24v22h22v24h24v20h20v24h46v1080h-22v24h-114v20h-22v112h22v24h136v-24h202v-22h24v-44h20v-46h24v-44h22v-22h24v-68h20v-46h22v-22h24v-44h20v-46h24v-44h22v-46h24v-22h22v-24h24v-44h20v-46h24v-44h22v-22h24v-46h20v-20h24v-46h22v-44h20v-24h24 v-22h22v-46h46v-24h24v564h-24v180h-22v46h-24v22h-88v24h-44v20h-46v90h22v22h472v-22h22v-90h-22v-20h-46v-24h-44v-112h-22v-70h22v-110h-22v-450h22v-518h-22v-22h-44v-24h-70v24h-20v22h-24v24h-22v42h-24v46h-22v44h-24v46h-20v44h-22v46h-24v70h-20v20h-24v66h-22v24 h-24v46h-20v22h-24v44h-22v46h-24v44h-22v24h-24v44h-20v44h-24v46h-22v24h-20v44h-24v46h-22v44h-24v22h-20v46h-46v20h-24v-42h-22v-608h22v-202h24v-46h22v-24h68v-20h88v-24h24v-22h20v-90h-132v-22h-360v22h-46v44h-22zM236 1606v136h22v22h66v24h226v-24h316v24h176 v-24h24v-22h22v-112h-22v-44h-90v-24h-694v24h-24v20h-22z" />
<glyph unicode="&#xd2;" horiz-adv-x="1256" d="M44 520h22v-90h24v-66h20v-68h24v-24h22v-44h24v-22h20v-24h22v-44h24v-22h20v-24h46v-22h46v-20h44v-24h90v-22h202v22h136v24h44v20h46v22h22v24h24v22h20v24h24v20h46v24h20v46h24v44h22v46h24v46h20v110h24v112h22v272h-22v112h-24v90h-20v44h-24v68h-22v44h-24v24 h-20v22h-24v24h-22v44h-24v22h-44v24h-22v20h-24v22h-42v24h-90v22h-136v24h-70v-24h-66v-22h-90v-24h-44v-22h-22v-20h-46v-24h-24v-22h-44v-44h-22v-24h-20v-22h-24v-68h-22v-22h-24v-70h-20v-42h-24v-160h-22v-382zM202 1790l18 30l-10 6l42 74l12 -6l8 14l12 -6l8 16 l86 -52l-8 -16l152 -90l10 16l110 -64l-10 -16l32 -18l-8 -14l10 -8l-52 -90l-12 6l-8 -14l-12 6l-8 -16l-338 200l10 16zM246 544v404h20v90h24v66h22v46h24v46h22v44h24v24h20v22h24v24h66v20h66v24h92v-24h68v-20h46v-24h44v-22h46v-24h20v-44h22v-46h24v-46h22v-20h24 v-90h20v-136h24v-202h-24v-158h-20v-90h-24v-44h-22v-46h-24v-22h-22v-44h-20v-24h-24v-22h-46v-24h-44v-20h-90v-24h-68v24h-66v20h-44v24h-46v22h-24v24h-20v20h-24v24h-22v46h-24v46h-22v66h-24v90h-20z" />
<glyph unicode="&#xd3;" horiz-adv-x="1256" d="M44 520v382h22v160h24v42h20v70h24v22h22v68h24v22h20v24h22v44h44v22h24v24h46v20h22v22h44v24h90v22h66v24h70v-24h136v-22h90v-24h42v-22h24v-20h22v-24h44v-22h24v-44h22v-24h24v-22h20v-24h24v-44h22v-68h24v-44h20v-90h24v-112h22v-272h-22v-112h-24v-110h-20v-46 h-24v-46h-22v-44h-24v-46h-20v-24h-46v-20h-24v-24h-20v-22h-24v-24h-22v-22h-46v-20h-44v-24h-136v-22h-202v22h-90v24h-44v20h-46v22h-46v24h-20v22h-24v44h-22v24h-20v22h-24v44h-22v24h-24v68h-20v66h-24v90h-22zM246 544h20v-90h24v-66h22v-46h24v-46h22v-24h24v-20h20 v-24h24v-22h46v-24h44v-20h66v-24h68v24h90v20h44v24h46v22h24v24h20v44h22v22h24v46h22v44h24v90h20v158h24v202h-24v136h-20v90h-24v20h-22v46h-24v46h-22v44h-20v24h-46v22h-44v24h-46v20h-68v24h-92v-24h-66v-20h-66v-24h-24v-22h-20v-24h-24v-44h-22v-46h-24v-46h-22 v-66h-24v-90h-20v-404zM548 1656l10 6l-8 14l32 20l-10 16l110 64l10 -16l152 90l-8 16l86 50l8 -16l12 8l8 -14l12 6l42 -76l-10 -6l18 -30l-44 -26l10 -16l-338 -198l-8 16l-12 -6l-8 14l-12 -6z" />
<glyph unicode="&#xd4;" horiz-adv-x="1256" d="M44 520v382h22v160h24v42h20v70h24v22h22v68h24v22h20v24h22v44h44v22h24v24h46v20h22v22h44v24h90v22h66v24h70v-24h136v-22h90v-24h42v-22h24v-20h22v-24h44v-22h24v-44h22v-24h24v-22h20v-24h24v-44h22v-68h24v-44h20v-90h24v-112h22v-272h-22v-112h-24v-110h-20v-46 h-24v-46h-22v-44h-24v-46h-20v-24h-46v-20h-24v-24h-20v-22h-24v-24h-22v-22h-46v-20h-44v-24h-136v-22h-202v22h-90v24h-44v20h-46v22h-46v24h-20v22h-24v44h-22v24h-20v22h-24v44h-22v24h-24v68h-20v66h-24v90h-22zM246 544h20v-90h24v-66h22v-46h24v-46h22v-24h24v-20h20 v-24h24v-22h46v-24h44v-20h66v-24h68v24h90v20h44v24h46v22h24v24h20v44h22v22h24v46h22v44h24v90h20v158h24v202h-24v136h-20v90h-24v20h-22v46h-24v46h-22v44h-20v24h-46v22h-44v24h-46v20h-68v24h-92v-24h-66v-20h-66v-24h-24v-22h-20v-24h-24v-44h-22v-46h-24v-46h-22 v-66h-24v-90h-20v-404zM406 1594l18 34l-12 6l150 254l12 -6l4 8l12 -6l4 8l12 -6l12 6l4 -8l12 6l4 -8l12 6l150 -254l-12 -6l18 -34l-22 -14l4 -6l-56 -34l-4 8l-10 -6l-6 8l-12 -6l-38 64l12 8l-68 114l-68 -114l12 -8l-38 -64l-12 6l-6 -8l-10 6l-4 -8l-56 34l4 6z" />
<glyph unicode="&#xd6;" horiz-adv-x="1256" d="M44 520h22v-90h24v-66h20v-68h24v-24h22v-44h24v-22h20v-24h22v-44h24v-22h20v-24h46v-22h46v-20h44v-24h90v-22h202v22h136v24h44v20h46v22h22v24h24v22h20v24h24v20h46v24h20v46h24v44h22v46h24v46h20v110h24v112h22v272h-22v112h-24v90h-20v44h-24v68h-22v44h-24v24 h-20v22h-24v24h-22v44h-24v22h-44v24h-22v20h-24v22h-42v24h-90v22h-136v24h-70v-24h-66v-22h-90v-24h-44v-22h-22v-20h-46v-24h-24v-22h-44v-44h-22v-24h-20v-22h-24v-68h-22v-22h-24v-70h-20v-42h-24v-160h-22v-382zM246 544v404h20v90h24v66h22v46h24v46h22v44h24v24h20 v22h24v24h66v20h66v24h92v-24h68v-20h46v-24h44v-22h46v-24h20v-44h22v-46h24v-46h22v-20h24v-90h20v-136h24v-202h-24v-158h-20v-90h-24v-44h-22v-46h-24v-22h-22v-44h-20v-24h-24v-22h-46v-24h-44v-20h-90v-24h-68v24h-66v20h-44v24h-46v22h-24v24h-20v20h-24v24h-22v46 h-24v46h-22v66h-24v90h-20zM246 1630v136h24v22h20v24h70v20h22v-20h66v-24h24v-22h20v-136h-20v-44h-24v-22h-66v-24h-22v24h-70v46h-20v20h-24zM756 1676v70h24v42h44v24h46v20h20v-20h68v-24h24v-22h20v-156h-20v-24h-24v-22h-22v-24h-90v24h-46v46h-20v66h-24z" />
<glyph unicode="&#xd7;" horiz-adv-x="1136" d="M44 1128l16 16l-16 18l32 32l-14 14l30 32l14 -14l16 14l18 -16l16 16l16 -14l14 14l240 -240l-16 -14l112 -112l14 14l16 -14l18 16l16 -16l382 380l16 -14l14 14l16 -18l18 18l46 -48l-16 -16l30 -32l-64 -62l16 -16l-14 -14l-16 16l-78 -80l16 -16l-18 -16l-16 14 l-206 -206l16 -16l-32 -32l112 -112l-14 -14l126 -126l14 14l144 -144l-14 -16l16 -14l-18 -18l14 -14l-32 -32l18 -18l-14 -14l-18 18l-32 -32l-30 28l-16 -16l-368 366l-14 -14l-16 16l-66 -64l-14 16l-334 -334l-32 30l-14 -14l-16 18l14 14l-30 30l16 16l-16 18l96 96 l-16 16l62 62l16 -16l16 16l-14 16l78 78l14 -16l50 50l-16 16l94 92z" />
<glyph unicode="&#xd9;" d="M44 1370h46v-22h94v-24h22v-22h22v-1052h24v-72h22v-46h26v-48h22v-22h24v-24h48v-22h46v-22h46v-26h374v26h46v22h68v22h26v24h46v22h22v26h26v46h22v48h24v68h22v910h26v94h22v48h68v24h46v92h-22v24h-442v-24h-24v-44h24v-26h24v-22h68v-24h48v-70h22v-748h24v-24h-24 v-210h-22v-46h-26v-22h-22v-26h-24v-22h-44v-24h-94v-22h-188v22h-46v24h-48v22h-22v26h-24v22h-22v24h-24v514h-22v490h22v70h24v24h94v22h22v48h22v22h-22v24h-70v22h-24v-22h-140v22h-232v-22h-46v-94zM306 1780l18 30l-10 6l42 74l12 -6l8 14l12 -6l8 16l86 -52l-8 -16 l152 -90l10 16l110 -64l-10 -16l32 -18l-8 -14l10 -8l-52 -90l-12 6l-8 -14l-12 6l-8 -16l-338 200l10 16z" />
<glyph unicode="&#xda;" d="M44 1370v94h46v22h232v-22h140v22h24v-22h70v-24h22v-22h-22v-48h-22v-22h-94v-24h-24v-70h-22v-490h22v-514h24v-24h22v-22h24v-26h22v-22h48v-24h46v-22h188v22h94v24h44v22h24v26h22v22h26v46h22v210h24v24h-24v748h-22v70h-48v24h-68v22h-24v26h-24v44h24v24h442v-24 h22v-92h-46v-24h-68v-48h-22v-94h-26v-910h-22v-68h-24v-48h-22v-46h-26v-26h-22v-22h-46v-24h-26v-22h-68v-22h-46v-26h-374v26h-46v22h-46v22h-48v24h-24v22h-22v48h-26v46h-22v72h-24v1052h-22v22h-22v24h-94v22h-46zM682 1646l10 6l-8 14l32 20l-10 16l110 64l10 -16 l152 90l-8 16l86 50l8 -16l12 8l8 -14l12 6l42 -76l-10 -6l18 -30l-44 -26l10 -16l-338 -198l-8 16l-12 -6l-8 14l-12 -6z" />
<glyph unicode="&#xdb;" d="M44 1370v94h46v22h232v-22h140v22h24v-22h70v-24h22v-22h-22v-48h-22v-22h-94v-24h-24v-70h-22v-490h22v-514h24v-24h22v-22h24v-26h22v-22h48v-24h46v-22h188v22h94v24h44v22h24v26h22v22h26v46h22v210h24v24h-24v748h-22v70h-48v24h-68v22h-24v26h-24v44h24v24h442v-24 h22v-92h-46v-24h-68v-48h-22v-94h-26v-910h-22v-68h-24v-48h-22v-46h-26v-26h-22v-22h-46v-24h-26v-22h-68v-22h-46v-26h-374v26h-46v22h-46v22h-48v24h-24v22h-22v48h-26v46h-22v72h-24v1052h-22v22h-22v24h-94v22h-46zM512 1592l18 34l-12 6l150 254l12 -6l4 8l12 -6l4 8 l12 -6l12 6l4 -8l12 6l4 -8l12 6l150 -254l-12 -6l18 -34l-22 -14l4 -6l-56 -34l-4 8l-10 -6l-6 8l-12 -6l-38 64l12 8l-68 114l-68 -114l12 -8l-38 -64l-12 6l-6 -8l-10 6l-4 -8l-56 34l4 6z" />
<glyph unicode="&#xdc;" d="M44 1370h46v-22h94v-24h22v-22h22v-1052h24v-72h22v-46h26v-48h22v-22h24v-24h48v-22h46v-22h46v-26h374v26h46v22h68v22h26v24h46v22h22v26h26v46h22v48h24v68h22v910h26v94h22v48h68v24h46v92h-22v24h-442v-24h-24v-44h24v-26h24v-22h68v-24h48v-70h22v-748h24v-24h-24 v-210h-22v-46h-26v-22h-22v-26h-24v-22h-44v-24h-94v-22h-188v22h-46v24h-48v22h-22v26h-24v22h-22v24h-24v514h-22v490h22v70h24v24h94v22h22v48h22v22h-22v24h-70v22h-24v-22h-140v22h-232v-22h-46v-94zM336 1630v136h24v22h20v24h70v20h22v-20h66v-24h24v-22h20v-136h-20 v-44h-24v-22h-66v-24h-22v24h-70v46h-20v20h-24zM846 1676v70h24v42h44v24h46v20h20v-20h68v-24h24v-22h20v-156h-20v-24h-24v-22h-22v-24h-90v24h-46v46h-20v66h-24z" />
<glyph unicode="&#xe0;" horiz-adv-x="1212" d="M44 188h24v-44h20v-46h24v-20h46v-24h44v-22h46v-24h312v24h92v22h66v24h44v-24h46v-22h24v-24h156v24h66v22h90v24h24v66h-24v24h-20v20h-70v-20h-86v472h20v248h-20v44h-24v22h-22v24h-24v22h-46v20h-44v24h-314v-24h-114v-20h-44v-22h-44v-24h-44v-22h-46v-44h-24 v-114h24v-22h22v-24h112v24h24v22h20v68h24v22h22v24h44v22h46v22h180v-22h46v-22h20v-24h24v-22h22v-180h-22v-22h-24v-24h-66v-20h-112v20h-24v-20h-134v-24h-90v-22h-68v-24h-44v-20h-46v-24h-44v-22h-22v-24h-24v-46h-20v-44h-24v-158zM212 1344l18 30l-10 6l42 74 l12 -6l8 14l12 -6l8 16l86 -52l-8 -16l152 -90l10 16l110 -64l-10 -16l32 -18l-8 -14l10 -8l-52 -90l-12 6l-8 -14l-12 6l-8 -16l-338 200l10 16zM224 234v90h24v46h20v20h24v24h44v22h44v24h70v22h312v-22h24v-180h-24v-46h-20v-22h-46v-24h-44v-20h-46v-24h-112v-22h-24 v22h-134v24h-44v20h-44v46h-24z" />
<glyph unicode="&#xe1;" horiz-adv-x="1212" d="M44 188v158h24v44h20v46h24v24h22v22h44v24h46v20h44v24h68v22h90v24h134v20h24v-20h112v20h66v24h24v22h22v180h-22v22h-24v24h-20v22h-46v22h-180v-22h-46v-22h-44v-24h-22v-22h-24v-68h-20v-22h-24v-24h-112v24h-22v22h-24v114h24v44h46v22h44v24h44v22h44v20h114v24 h314v-24h44v-20h46v-22h24v-24h22v-22h24v-44h20v-248h-20v-472h86v20h70v-20h20v-24h24v-66h-24v-24h-90v-22h-66v-24h-156v24h-24v22h-46v24h-44v-24h-66v-22h-92v-24h-312v24h-46v22h-44v24h-46v20h-24v46h-20v44h-24zM224 234h24v-46h44v-20h44v-24h134v-22h24v22h112 v24h46v20h44v24h46v22h20v46h24v180h-24v22h-312v-22h-70v-24h-44v-22h-44v-24h-24v-20h-20v-46h-24v-90zM540 1218l10 6l-8 14l32 20l-10 16l110 64l10 -16l152 90l-8 16l86 50l8 -16l12 8l8 -14l12 6l42 -76l-10 -6l18 -30l-44 -26l10 -16l-338 -198l-8 16l-12 -6l-8 14 l-12 -6z" />
<glyph unicode="&#xe2;" horiz-adv-x="1212" d="M44 188v158h24v44h20v46h24v24h22v22h44v24h46v20h44v24h68v22h90v24h134v20h24v-20h112v20h66v24h24v22h22v180h-22v22h-24v24h-20v22h-46v22h-180v-22h-46v-22h-44v-24h-22v-22h-24v-68h-20v-22h-24v-24h-112v24h-22v22h-24v114h24v44h46v22h44v24h44v22h44v20h114v24 h314v-24h44v-20h46v-22h24v-24h22v-22h24v-44h20v-248h-20v-472h86v20h70v-20h20v-24h24v-66h-24v-24h-90v-22h-66v-24h-156v24h-24v22h-46v24h-44v-24h-66v-22h-92v-24h-312v24h-46v22h-44v24h-46v20h-24v46h-20v44h-24zM224 234h24v-46h44v-20h44v-24h134v-22h24v22h112 v24h46v20h44v24h46v22h20v46h24v180h-24v22h-312v-22h-70v-24h-44v-22h-44v-24h-24v-20h-20v-46h-24v-90zM406 1170l18 34l-12 6l150 254l12 -6l4 8l12 -6l4 8l12 -6l12 6l4 -8l12 6l4 -8l12 6l150 -254l-12 -6l18 -34l-22 -14l4 -6l-56 -34l-4 8l-10 -6l-6 8l-12 -6l-38 64 l12 8l-68 114l-68 -114l12 -8l-38 -64l-12 6l-6 -8l-10 6l-4 -8l-56 34l4 6z" />
<glyph unicode="&#xe4;" horiz-adv-x="1212" d="M44 188h24v-44h20v-46h24v-20h46v-24h44v-22h46v-24h312v24h92v22h66v24h44v-24h46v-22h24v-24h156v24h66v22h90v24h24v66h-24v24h-20v20h-70v-20h-86v472h20v248h-20v44h-24v22h-22v24h-24v22h-46v20h-44v24h-314v-24h-114v-20h-44v-22h-44v-24h-44v-22h-46v-44h-24 v-114h24v-22h22v-24h112v24h24v22h20v68h24v22h22v24h44v22h46v22h180v-22h46v-22h20v-24h24v-22h22v-180h-22v-22h-24v-24h-66v-20h-112v20h-24v-20h-134v-24h-90v-22h-68v-24h-44v-20h-46v-24h-44v-22h-22v-24h-24v-46h-20v-44h-24v-158zM224 234v90h24v46h20v20h24v24h44 v22h44v24h70v22h312v-22h24v-180h-24v-46h-20v-22h-46v-24h-44v-20h-46v-24h-112v-22h-24v22h-134v24h-44v20h-44v46h-24zM228 1196v136h24v22h20v24h70v20h22v-20h66v-24h24v-22h20v-136h-20v-44h-24v-22h-66v-24h-22v24h-70v46h-20v20h-24zM738 1242v70h24v42h44v24h46v20 h20v-20h68v-24h24v-22h20v-156h-20v-24h-24v-22h-22v-24h-90v24h-46v46h-20v66h-24z" />
<glyph unicode="&#xe7;" horiz-adv-x="1120" d="M44 390v160h20v134h24v44h22v46h24v44h22v24h24v22h20v24h24v22h22v22h20v22h46v24h24v22h66v20h70v24h292v-24h66v-20h44v-22h24v-24h22v-22h20v-22h24v-46h22v-112h24v-44h-24v-46h-22v-22h-110v22h-46v46h-24v134h-20v22h-24v24h-68v22h-180v-22h-44v-24h-46v-22h-22 v-24h-24v-20h-20v-24h-24v-22h-22v-44h-24v-68h-20v-250h20v-66h24v-20h22v-46h24v-24h20v-22h46v-24h46v-20h114v-24h132v24h136v20h44v24h66v22h116v-22h20v-68h-20v-22h-24v-24h-46v-20h-66v-24h-46v-22h-110v-24h-70v-22h-8l26 -88l-8 -2l36 -132l-18 -4l4 -18l-16 -4 l4 -16l-86 -24l-4 16l-36 -8l-18 68l-18 -6l-56 218h-70v22h-90v24h-70v22h-20v24h-22v20h-24v24h-20v22h-24v24h-22v44h-24v46h-22v66h-24v66h-20z" />
<glyph unicode="&#xe8;" horiz-adv-x="1144" d="M44 370h20v-112h24v-46h22v-24h24v-44h22v-22h44v-24h22v-20h24v-24h44v-22h66v-24h92v-22h224v22h112v24h90v22h90v24h46v20h46v24h20v22h24v68h-24v22h-90v-22h-66v-24h-66v-20h-136v-24h-180v24h-90v20h-46v24h-46v22h-20v24h-24v22h-22v44h-24v46h-20v66h20v24h114 v22h584v24h68v20h24v182h-24v66h-22v44h-24v24h-22v46h-24v22h-20v22h-24v22h-42v24h-24v22h-46v20h-44v24h-314v-24h-46v-20h-44v-22h-46v-24h-44v-22h-24v-22h-22v-46h-20v-22h-24v-24h-22v-44h-24v-46h-22v-44h-24v-112h-20v-202zM198 1354l18 30l-10 6l42 74l12 -6l8 14 l12 -6l8 16l86 -52l-8 -16l152 -90l10 16l110 -64l-10 -16l32 -18l-8 -14l10 -8l-52 -90l-12 6l-8 -14l-12 6l-8 -16l-338 200l10 16zM266 596v112h24v44h22v22h24v24h20v20h24v24h22v22h24v24h46v22h176v-22h70v-24h22v-22h44v-44h24v-24h22v-22h24v-44h20v-24h-20v-44h-24 v-24h-202v-20h-362z" />
<glyph unicode="&#xe9;" horiz-adv-x="1144" d="M44 370v202h20v112h24v44h22v46h24v44h22v24h24v22h20v46h22v22h24v22h44v24h46v22h44v20h46v24h314v-24h44v-20h46v-22h24v-24h42v-22h24v-22h20v-22h24v-46h22v-24h24v-44h22v-66h24v-182h-24v-20h-68v-24h-584v-22h-114v-24h-20v-66h20v-46h24v-44h22v-22h24v-24h20 v-22h46v-24h46v-20h90v-24h180v24h136v20h66v24h66v22h90v-22h24v-68h-24v-22h-20v-24h-46v-20h-46v-24h-90v-22h-90v-24h-112v-22h-224v22h-92v24h-66v22h-44v24h-24v20h-22v24h-44v22h-22v44h-24v24h-22v46h-24v112h-20zM266 596h362v20h202v24h24v44h20v24h-20v44h-24v22 h-22v24h-24v44h-44v22h-22v24h-70v22h-176v-22h-46v-24h-24v-22h-22v-24h-24v-20h-20v-24h-24v-22h-22v-44h-24v-112zM428 1222l10 6l-8 14l32 20l-10 16l110 64l10 -16l152 90l-8 16l86 50l8 -16l12 8l8 -14l12 6l42 -76l-10 -6l18 -30l-44 -26l10 -16l-338 -198l-8 16 l-12 -6l-8 14l-12 -6z" />
<glyph unicode="&#xea;" horiz-adv-x="1144" d="M44 370v202h20v112h24v44h22v46h24v44h22v24h24v22h20v46h22v22h24v22h44v24h46v22h44v20h46v24h314v-24h44v-20h46v-22h24v-24h42v-22h24v-22h20v-22h24v-46h22v-24h24v-44h22v-66h24v-182h-24v-20h-68v-24h-584v-22h-114v-24h-20v-66h20v-46h24v-44h22v-22h24v-24h20 v-22h46v-24h46v-20h90v-24h180v24h136v20h66v24h66v22h90v-22h24v-68h-24v-22h-20v-24h-46v-20h-46v-24h-90v-22h-90v-24h-112v-22h-224v22h-92v24h-66v22h-44v24h-24v20h-22v24h-44v22h-22v44h-24v24h-22v46h-24v112h-20zM266 596h362v20h202v24h24v44h20v24h-20v44h-24v22 h-22v24h-24v44h-44v22h-22v24h-70v22h-176v-22h-46v-24h-24v-22h-22v-24h-24v-20h-20v-24h-24v-22h-22v-44h-24v-112zM388 1160l18 34l-12 6l150 254l12 -6l4 8l12 -6l4 8l12 -6l12 6l4 -8l12 6l4 -8l12 6l150 -254l-12 -6l18 -34l-22 -14l4 -6l-56 -34l-4 8l-10 -6l-6 8 l-12 -6l-38 64l12 8l-68 114l-68 -114l12 -8l-38 -64l-12 6l-6 -8l-10 6l-4 -8l-56 34l4 6z" />
<glyph unicode="&#xeb;" horiz-adv-x="1144" d="M44 370h20v-112h24v-46h22v-24h24v-44h22v-22h44v-24h22v-20h24v-24h44v-22h66v-24h92v-22h224v22h112v24h90v22h90v24h46v20h46v24h20v22h24v68h-24v22h-90v-22h-66v-24h-66v-20h-136v-24h-180v24h-90v20h-46v24h-46v22h-20v24h-24v22h-22v44h-24v46h-20v66h20v24h114 v22h584v24h68v20h24v182h-24v66h-22v44h-24v24h-22v46h-24v22h-20v22h-24v22h-42v24h-24v22h-46v20h-44v24h-314v-24h-46v-20h-44v-22h-46v-24h-44v-22h-24v-22h-22v-46h-20v-22h-24v-24h-22v-44h-24v-46h-22v-44h-24v-112h-20v-202zM204 1196v136h24v22h20v24h70v20h22v-20 h66v-24h24v-22h20v-136h-20v-44h-24v-22h-66v-24h-22v24h-70v46h-20v20h-24zM266 596v112h24v44h22v22h24v24h20v20h24v24h22v22h24v24h46v22h176v-22h70v-24h22v-22h44v-44h24v-24h22v-22h24v-44h20v-24h-20v-44h-24v-24h-202v-20h-362zM714 1242v70h24v42h44v24h46v20h20 v-20h68v-24h24v-22h20v-156h-20v-24h-24v-22h-22v-24h-90v24h-46v46h-20v66h-24z" />
<glyph unicode="&#xec;" horiz-adv-x="1100" d="M44 46h24v-46h46v-22h42v22h720v-22h114v22h44v24h22v90h-46v22h-358v24h-44v20h-24v700h24v66h-24v66h-46v24h-88v-24h-204v-20h-178v-24h-24v-66h24v-22h22v-24h90v24h156v-24h70v-676h-46v-20h-44v-24h-226v-22h-22v-44h-24v-24zM100 1356l18 30l-10 6l42 74l12 -6 l8 14l12 -6l8 16l86 -52l-8 -16l152 -90l10 16l110 -64l-10 -16l32 -18l-8 -14l10 -8l-52 -90l-12 6l-8 -14l-12 6l-8 -16l-338 200l10 16z" />
<glyph unicode="&#xed;" horiz-adv-x="1100" d="M44 46v24h24v44h22v22h226v24h44v20h46v676h-70v24h-156v-24h-90v24h-22v22h-24v66h24v24h178v20h204v24h88v-24h46v-66h24v-66h-24v-700h24v-20h44v-24h358v-22h46v-90h-22v-24h-44v-22h-114v22h-720v-22h-42v22h-46v46h-24zM428 1222l10 6l-8 14l32 20l-10 16l110 64 l10 -16l152 90l-8 16l86 50l8 -16l12 8l8 -14l12 6l42 -76l-10 -6l18 -30l-44 -26l10 -16l-338 -198l-8 16l-12 -6l-8 14l-12 -6z" />
<glyph unicode="&#xee;" horiz-adv-x="1100" d="M44 46v24h24v44h22v22h226v24h44v20h46v676h-70v24h-156v-24h-90v24h-22v22h-24v66h24v24h178v20h204v24h88v-24h46v-66h24v-66h-24v-700h24v-20h44v-24h358v-22h46v-90h-22v-24h-44v-22h-114v22h-720v-22h-42v22h-46v46h-24zM304 1148l18 34l-12 6l150 254l12 -6l4 8 l12 -6l4 8l12 -6l12 6l4 -8l12 6l4 -8l12 6l150 -254l-12 -6l18 -34l-22 -14l4 -6l-56 -34l-4 8l-10 -6l-6 8l-12 -6l-38 64l12 8l-68 114l-68 -114l12 -8l-38 -64l-12 6l-6 -8l-10 6l-4 -8l-56 34l4 6z" />
<glyph unicode="&#xef;" horiz-adv-x="1100" d="M44 46h24v-46h46v-22h42v22h720v-22h114v22h44v24h22v90h-46v22h-358v24h-44v20h-24v700h24v66h-24v66h-46v24h-88v-24h-204v-20h-178v-24h-24v-66h24v-22h22v-24h90v24h156v-24h70v-676h-46v-20h-44v-24h-226v-22h-22v-44h-24v-24zM120 1196v136h24v22h20v24h70v20h22 v-20h66v-24h24v-22h20v-136h-20v-44h-24v-22h-66v-24h-22v24h-70v46h-20v20h-24zM630 1242v70h24v42h44v24h46v20h20v-20h68v-24h24v-22h20v-156h-20v-24h-24v-22h-22v-24h-90v24h-46v46h-20v66h-24z" />
<glyph unicode="&#xf1;" d="M44 880v66h22v22h44v24h114v20h134v-20h24v-24h20v-42h90v20h24v22h46v24h88v20h68v24h202v-24h24v-20h42v-24h46v-22h24v-20h20v-24h24v-46h22v-66h24v-630h22v-24h114v-22h42v-114h-42v-22h-182v22h-224v46h-22v24h22v20h24v24h20v22h24v24h22v268h20v202h-20v114h-22 v46h-24v20h-20v24h-24v22h-46v24h-156v-24h-46v-22h-66v-24h-46v-20h-68v-46h-22v-202h-24v-250h24v-132h22v-24h114v-22h46v-24h20v-20h22v-24h-22v-22h-20v-24h-428v24h-24v22h-22v24h22v44h24v22h44v24h22v674h-22v22h-158v24h-22zM258 1202v136h22v20h66v24h226v-24h316 v24h176v-24h24v-20h22v-112h-22v-46h-90v-24h-694v24h-24v22h-22z" />
<glyph unicode="&#xf2;" horiz-adv-x="1168" d="M44 362h24v-46h20v-66h24v-46h22v-44h24v-24h22v-22h20v-24h46v-20h24v-24h44v-22h66v-24h70v-22h222v22h92v24h44v22h46v24h20v20h24v24h46v22h20v24h24v20h22v24h24v22h22v46h24v110h20v70h24v156h-24v112h-20v46h-24v44h-22v24h-24v46h-22v22h-24v24h-20v20h-24v22 h-22v24h-66v20h-68v24h-112v22h-156v-22h-92v-24h-44v-20h-46v-24h-44v-22h-24v-20h-22v-24h-44v-22h-22v-46h-24v-24h-22v-44h-24v-46h-20v-66h-24v-292zM154 1344l18 30l-10 6l42 74l12 -6l8 14l12 -6l8 16l86 -52l-8 -16l152 -90l10 16l110 -64l-10 -16l32 -18l-8 -14 l10 -8l-52 -90l-12 6l-8 -14l-12 6l-8 -16l-338 200l10 16zM224 428v160h22v88h24v68h20v46h24v20h22v24h24v22h20v24h46v22h270v-22h46v-24h46v-22h20v-24h24v-20h22v-70h20v-20h24v-46h22v-90h24v-112h-24v-90h-22v-46h-24v-44h-20v-46h-22v-22h-24v-24h-44v-20h-46v-24 h-66v-22h-136v22h-66v24h-46v20h-24v24h-20v22h-24v24h-22v22h-24v44h-20v22h-24v90h-22z" />
<glyph unicode="&#xf3;" horiz-adv-x="1168" d="M44 362v292h24v66h20v46h24v44h22v24h24v46h22v22h44v24h22v20h24v22h44v24h46v20h44v24h92v22h156v-22h112v-24h68v-20h66v-24h22v-22h24v-20h20v-24h24v-22h22v-46h24v-24h22v-44h24v-46h20v-112h24v-156h-24v-70h-20v-110h-24v-46h-22v-22h-24v-24h-22v-20h-24v-24 h-20v-22h-46v-24h-24v-20h-20v-24h-46v-22h-44v-24h-92v-22h-222v22h-70v24h-66v22h-44v24h-24v20h-46v24h-20v22h-22v24h-24v44h-22v46h-24v66h-20v46h-24zM224 428h22v-90h24v-22h20v-44h24v-22h22v-24h24v-22h20v-24h24v-20h46v-24h66v-22h136v22h66v24h46v20h44v24h24 v22h22v46h20v44h24v46h22v90h24v112h-24v90h-22v46h-24v20h-20v70h-22v20h-24v24h-20v22h-46v24h-46v22h-270v-22h-46v-24h-20v-22h-24v-24h-22v-20h-24v-46h-20v-68h-24v-88h-22v-160zM514 1222l10 6l-8 14l32 20l-10 16l110 64l10 -16l152 90l-8 16l86 50l8 -16l12 8 l8 -14l12 6l42 -76l-10 -6l18 -30l-44 -26l10 -16l-338 -198l-8 16l-12 -6l-8 14l-12 -6z" />
<glyph unicode="&#xf4;" horiz-adv-x="1168" d="M44 362v292h24v66h20v46h24v44h22v24h24v46h22v22h44v24h22v20h24v22h44v24h46v20h44v24h92v22h156v-22h112v-24h68v-20h66v-24h22v-22h24v-20h20v-24h24v-22h22v-46h24v-24h22v-44h24v-46h20v-112h24v-156h-24v-70h-20v-110h-24v-46h-22v-22h-24v-24h-22v-20h-24v-24 h-20v-22h-46v-24h-24v-20h-20v-24h-46v-22h-44v-24h-92v-22h-222v22h-70v24h-66v22h-44v24h-24v20h-46v24h-20v22h-22v24h-24v44h-22v46h-24v66h-20v46h-24zM224 428h22v-90h24v-22h20v-44h24v-22h22v-24h24v-22h20v-24h24v-20h46v-24h66v-22h136v22h66v24h46v20h44v24h24 v22h22v46h20v44h24v46h22v90h24v112h-24v90h-22v46h-24v20h-20v70h-22v20h-24v24h-20v22h-46v24h-46v22h-270v-22h-46v-24h-20v-22h-24v-24h-22v-20h-24v-46h-20v-68h-24v-88h-22v-160zM394 1174l18 34l-12 6l150 254l12 -6l4 8l12 -6l4 8l12 -6l12 6l4 -8l12 6l4 -8l12 6 l150 -254l-12 -6l18 -34l-22 -14l4 -6l-56 -34l-4 8l-10 -6l-6 8l-12 -6l-38 64l12 8l-68 114l-68 -114l12 -8l-38 -64l-12 6l-6 -8l-10 6l-4 -8l-56 34l4 6z" />
<glyph unicode="&#xf6;" horiz-adv-x="1168" d="M44 362h24v-46h20v-66h24v-46h22v-44h24v-24h22v-22h20v-24h46v-20h24v-24h44v-22h66v-24h70v-22h222v22h92v24h44v22h46v24h20v20h24v24h46v22h20v24h24v20h22v24h24v22h22v46h24v110h20v70h24v156h-24v112h-20v46h-24v44h-22v24h-24v46h-22v22h-24v24h-20v20h-24v22 h-22v24h-66v20h-68v24h-112v22h-156v-22h-92v-24h-44v-20h-46v-24h-44v-22h-24v-20h-22v-24h-44v-22h-22v-46h-24v-24h-22v-44h-24v-46h-20v-66h-24v-292zM206 1202v136h24v22h20v24h70v20h22v-20h66v-24h24v-22h20v-136h-20v-44h-24v-22h-66v-24h-22v24h-70v46h-20v20h-24z M224 428v160h22v88h24v68h20v46h24v20h22v24h24v22h20v24h46v22h270v-22h46v-24h46v-22h20v-24h24v-20h22v-70h20v-20h24v-46h22v-90h24v-112h-24v-90h-22v-46h-24v-44h-20v-46h-22v-22h-24v-24h-44v-20h-46v-24h-66v-22h-136v22h-66v24h-46v20h-24v24h-20v22h-24v24h-22v22 h-24v44h-20v22h-24v90h-22zM716 1248v70h24v42h44v24h46v20h20v-20h68v-24h24v-22h20v-156h-20v-24h-24v-22h-22v-24h-90v24h-46v46h-20v66h-24z" />
<glyph unicode="&#xf7;" horiz-adv-x="940" d="M44 496v136h22v20h66v24h226v-24h316v24h176v-24h24v-20h22v-112h-22v-46h-90v-22h-694v22h-24v22h-22zM318 228v22h22v46h24v44h42v24h68v-24h66v-20h46v-46h24v-90h-24v-22h-22v-24h-24v-20h-156v20h-20v24h-24v66h-22zM318 858v22h22v68h24v22h20v24h136v-24h20v-22 h46v-68h24v-22h-24v-66h-22v-24h-44v-22h-136v22h-20v24h-24v66h-22z" />
<glyph unicode="&#xf9;" d="M44 906h22v-22h24v-24h110v-20h22v-46h24v-70h-24v-90h24v-112h-24v-20h24v-114h-24v-22h24v-136h22v-66h24v-24h20v-44h46v-22h24v-24h20v-22h46v-24h68v-20h134v20h114v24h66v22h66v24h70v-24h20v-22h46v-24h68v24h68v22h44v24h90v22h22v44h-22v46h-110v24h-46v20h-24 v586h24v114h-24v66h-22v22h-68v-22h-112v-24h-112v-22h-24v-66h24v-24h112v-20h22v-24h24v-562h-24v-24h-22v-20h-24v-24h-66v-22h-46v-24h-200v24h-68v22h-44v24h-24v44h-22v22h-24v66h-20v406h20v248h-20v22h-114v-22h-158v-24h-44v-42h-22v-24zM242 1350l18 30l-10 6 l42 74l12 -6l8 14l12 -6l8 16l86 -52l-8 -16l152 -90l10 16l110 -64l-10 -16l32 -18l-8 -14l10 -8l-52 -90l-12 6l-8 -14l-12 6l-8 -16l-338 200l10 16z" />
<glyph unicode="&#xfa;" d="M44 906v24h22v42h44v24h158v22h114v-22h20v-248h-20v-406h20v-66h24v-22h22v-44h24v-24h44v-22h68v-24h200v24h46v22h66v24h24v20h22v24h24v562h-24v24h-22v20h-112v24h-24v66h24v22h112v24h112v22h68v-22h22v-66h24v-114h-24v-586h24v-20h46v-24h110v-46h22v-44h-22v-22 h-90v-24h-44v-22h-68v-24h-68v24h-46v22h-20v24h-70v-24h-66v-22h-66v-24h-114v-20h-134v20h-68v24h-46v22h-20v24h-24v22h-46v44h-20v24h-24v66h-22v136h-24v22h24v114h-24v20h24v112h-24v90h24v70h-24v46h-22v20h-110v24h-24v22h-22zM592 1222l10 6l-8 14l32 20l-10 16 l110 64l10 -16l152 90l-8 16l86 50l8 -16l12 8l8 -14l12 6l42 -76l-10 -6l18 -30l-44 -26l10 -16l-338 -198l-8 16l-12 -6l-8 14l-12 -6z" />
<glyph unicode="&#xfb;" d="M44 906v24h22v42h44v24h158v22h114v-22h20v-248h-20v-406h20v-66h24v-22h22v-44h24v-24h44v-22h68v-24h200v24h46v22h66v24h24v20h22v24h24v562h-24v24h-22v20h-112v24h-24v66h24v22h112v24h112v22h68v-22h22v-66h24v-114h-24v-586h24v-20h46v-24h110v-46h22v-44h-22v-22 h-90v-24h-44v-22h-68v-24h-68v24h-46v22h-20v24h-70v-24h-66v-22h-66v-24h-114v-20h-134v20h-68v24h-46v22h-20v24h-24v22h-46v44h-20v24h-24v66h-22v136h-24v22h24v114h-24v20h24v112h-24v90h24v70h-24v46h-22v20h-110v24h-24v22h-22zM432 1168l18 34l-12 6l150 254l12 -6 l4 8l12 -6l4 8l12 -6l12 6l4 -8l12 6l4 -8l12 6l150 -254l-12 -6l18 -34l-22 -14l4 -6l-56 -34l-4 8l-10 -6l-6 8l-12 -6l-38 64l12 8l-68 114l-68 -114l12 -8l-38 -64l-12 6l-6 -8l-10 6l-4 -8l-56 34l4 6z" />
<glyph unicode="&#xfc;" d="M44 906h22v-22h24v-24h110v-20h22v-46h24v-70h-24v-90h24v-112h-24v-20h24v-114h-24v-22h24v-136h22v-66h24v-24h20v-44h46v-22h24v-24h20v-22h46v-24h68v-20h134v20h114v24h66v22h66v24h70v-24h20v-22h46v-24h68v24h68v22h44v24h90v22h22v44h-22v46h-110v24h-46v20h-24 v586h24v114h-24v66h-22v22h-68v-22h-112v-24h-112v-22h-24v-66h24v-24h112v-20h22v-24h24v-562h-24v-24h-22v-20h-24v-24h-66v-22h-46v-24h-200v24h-68v22h-44v24h-24v44h-22v22h-24v66h-20v406h20v248h-20v22h-114v-22h-158v-24h-44v-42h-22v-24zM270 1190v136h24v22h20v24 h70v20h22v-20h66v-24h24v-22h20v-136h-20v-44h-24v-22h-66v-24h-22v24h-70v46h-20v20h-24zM780 1236v70h24v42h44v24h46v20h20v-20h68v-24h24v-22h20v-156h-20v-24h-24v-22h-22v-24h-90v24h-46v46h-20v66h-24z" />
<glyph unicode="&#x2c6;" horiz-adv-x="488" d="M44 1660l18 34l-12 6l150 254l12 -6l4 8l12 -6l4 8l12 -6l12 6l4 -8l12 6l4 -8l12 6l150 -254l-12 -6l18 -34l-22 -14l4 -6l-56 -34l-4 8l-10 -6l-6 8l-12 -6l-38 64l12 8l-68 114l-68 -114l12 -8l-38 -64l-12 6l-6 -8l-10 6l-4 -8l-56 34l4 6z" />
<glyph unicode="&#x2000;" horiz-adv-x="992" />
<glyph unicode="&#x2001;" horiz-adv-x="1984" />
<glyph unicode="&#x2002;" horiz-adv-x="992" />
<glyph unicode="&#x2003;" horiz-adv-x="1984" />
<glyph unicode="&#x2004;" horiz-adv-x="661" />
<glyph unicode="&#x2005;" horiz-adv-x="496" />
<glyph unicode="&#x2006;" horiz-adv-x="330" />
<glyph unicode="&#x2007;" horiz-adv-x="330" />
<glyph unicode="&#x2008;" horiz-adv-x="248" />
<glyph unicode="&#x2009;" horiz-adv-x="396" />
<glyph unicode="&#x200a;" horiz-adv-x="110" />
<glyph unicode="&#x2010;" horiz-adv-x="940" d="M44 576v136h22v20h66v24h226v-24h316v24h176v-24h24v-20h22v-112h-22v-46h-90v-22h-694v22h-24v22h-22z" />
<glyph unicode="&#x2011;" horiz-adv-x="940" d="M44 576v136h22v20h66v24h226v-24h316v24h176v-24h24v-20h22v-112h-22v-46h-90v-22h-694v22h-24v22h-22z" />
<glyph unicode="&#x2012;" horiz-adv-x="940" d="M44 576v136h22v20h66v24h226v-24h316v24h176v-24h24v-20h22v-112h-22v-46h-90v-22h-694v22h-24v22h-22z" />
<glyph unicode="&#x2013;" horiz-adv-x="940" d="M44 576v136h22v20h66v24h226v-24h316v24h176v-24h24v-20h22v-112h-22v-46h-90v-22h-694v22h-24v22h-22z" />
<glyph unicode="&#x2014;" horiz-adv-x="1560" d="M44 576v136h22v20h66v24h226v-24h936v24h176v-24h24v-20h22v-112h-22v-46h-90v-22h-1314v22h-24v22h-22z" />
<glyph unicode="&#x2018;" horiz-adv-x="400" d="M44 1470v110h20v24h24v22h66v24h68v-24h68v-22h46v-44h20v-70h-20v-136h-24v-156h-22v-22h22v-180h-22v-22h-24v-22h-112v22h-20v22h-24v136h-22v222h-24v116h-20z" />
<glyph unicode="&#x2019;" horiz-adv-x="400" d="M44 1470v110h20v24h24v22h66v24h68v-24h68v-22h46v-44h20v-70h-20v-136h-24v-156h-22v-22h22v-180h-22v-22h-24v-22h-112v22h-20v22h-24v136h-22v222h-24v116h-20z" />
<glyph unicode="&#x201c;" horiz-adv-x="1008" d="M44 1450v136h20v24h24v20h158v-20h44v-24h22v-136h-22v-178h-24v-248h-20v-24h-24v-20h-68v20h-22v24h-22v112h-22v158h-24v156h-20zM694 1474v112h24v24h44v20h134v-20h44v-24h24v-158h-24v-336h-20v-68h-24v-24h-22v-20h-68v20h-22v24h-22v112h-24v202h-20v136h-24z " />
<glyph unicode="&#x201d;" horiz-adv-x="1008" d="M44 1450v136h20v24h24v20h158v-20h44v-24h22v-136h-22v-178h-24v-248h-20v-24h-24v-20h-68v20h-22v24h-22v112h-22v158h-24v156h-20zM694 1474v112h24v24h44v20h134v-20h44v-24h24v-158h-24v-336h-20v-68h-24v-24h-22v-20h-68v20h-22v24h-22v112h-24v202h-20v136h-24z " />
<glyph unicode="&#x2026;" horiz-adv-x="1656" d="M44 -14v44h24v92h22v20h24v24h22v22h90v24h20v-24h90v-22h24v-24h22v-44h24v-46h22v-22h-22v-66h-24v-24h-22v-20h-24v-24h-20v-22h-24v-24h-66v24h-66v22h-46v24h-24v20h-22v46h-24zM636 -14v44h24v92h22v20h24v24h22v22h90v24h20v-24h90v-22h24v-24h22v-44h24v-46h22 v-22h-22v-66h-24v-24h-22v-20h-24v-24h-20v-22h-24v-24h-66v24h-66v22h-46v24h-24v20h-22v46h-24zM1228 -14v44h24v92h22v20h24v24h22v22h90v24h20v-24h90v-22h24v-24h22v-44h24v-46h22v-22h-22v-66h-24v-24h-22v-20h-24v-24h-20v-22h-24v-24h-66v24h-66v22h-46v24h-24v20 h-22v46h-24z" />
<glyph unicode="&#x202f;" horiz-adv-x="396" />
<glyph unicode="&#x2039;" horiz-adv-x="704" d="M44 564v96l14 6l-10 20l452 336l10 -20l58 30l24 -38l10 8l58 -96l-14 -6l10 -18l-14 -10l10 -20l-108 -64l-14 20l-234 -196l234 -196l14 20l108 -64l-10 -20l14 -10l-10 -18l14 -6l-58 -96l-10 8l-24 -38l-58 30l-10 -20l-452 336l10 20z" />
<glyph unicode="&#x203a;" horiz-adv-x="704" d="M44 318l14 6l-10 18l14 10l-10 20l108 64l14 -20l234 196l-234 196l-14 -20l-108 64l10 20l-14 10l10 18l-14 6l58 96l10 -8l24 38l58 -30l10 20l452 -336l-10 -20l14 -6v-96l-14 -6l10 -20l-452 -336l-10 20l-58 -30l-24 38l-10 -8z" />
<glyph unicode="&#x205f;" horiz-adv-x="496" />
<glyph unicode="&#x20ac;" horiz-adv-x="1236" d="M44 544v44h24v24h22v22h22v142h-44v44h-24v46h24v24h22v22h46v36h20v68h24v68h22v44h24v46h22v22h24v44h20v24h24v22h22v24h24v20h20v24h22v22h44v24h24v20h46v22h66v24h248v-24h114v-22h202v-20h20v-46h24v-44h-24v-226h24v-46h-24v-22h-20v-22h-92v22h-20v46h-24v112 h-22v44h-24v22h-20v24h-24v22h-46v24h-268v-24h-44v-22h-46v-24h-24v-22h-22v-22h-24v-46h-20v-22h-24v-44h-22v-68h-20v-90h-24v-14h360v22h136v-22h336v-22h22v-70h-22v-44h-136v-22h-24v22h-90v-22h-110v22h-92v-22h-90v22h-66v-22h-224v-30h-22v-68h20v2h46v-24h788v-46 h22v-66h-22v-24h-608v-22h-136v22h-88v-24h24v-86h20v-70h22v-22h24v-44h20v-24h24v-22h22v-24h46v-20h44v-24h46v-22h202v22h44v24h46v20h24v24h20v46h24v20h22v92h24v66h20v24h22v20h70v-20h44v-292h-24v-24h-20v-22h-24v-24h-46v-22h-22v-20h-44v-24h-46v-22h-90v-24h-90 v-20h-132v20h-114v24h-68v22h-44v24h-46v20h-20v22h-24v24h-22v22h-24v24h-20v44h-24v22h-22v24h-24v66h-22v46h-24v66h-20v68h-46v24h-22v22h-24z" />
<glyph unicode="&#x2122;" horiz-adv-x="1498" d="M44 1282v84h12v66h10v12h586v-12h10v-20h10v-206h-10v-24l-84 10l-10 14h-12v98h-10v10h-12v14h-32v10h-40v-10h-34v-14h-10v-172h10v-60h-10v-18h10v-62h-10v-82h10v-100h22v-12h32v-10h80v-14h12v-10h10v-60h-10v-22h-56v-10h-52v10h-300v92h10v14h36v10h44v12h32v12 h12v482h-12v14h-44v10h-6v-10h-32v-14h-12v-10h-10v-12h-12v-66h-12v-44h-22v-12l-62 10l-10 14h-10v88h-12zM714 1384v48h14v12h22v10h146v-10h30v-12h10v-8h14v-22h8v-22h14v-22h10v-32h10v-22h10v-22h10v-20h12v-22h12v-22h10v-20h12v-22h8v-32h10v-10h16v10h10v32h12v22 h10v32h10v22h10v20h12v22h12v32h10v32h10v32h12v12h10v22h10v20h210v-12h24v-90h-54v-10h-44v-226h-10v-58h10v-126h-10v-14h10v-64h10v-12h34v-10h30v-10h10v-12h14v-70h-14v-12h-40v-10h-72v10h-160v12h-12v10h-12v50h12v22h12v10h32v10h20v12h12v214h10v112h-10v22h-6 v-22h-10v-22h-10v-12h-10v-30h-12v-34h-10v-10h-12v-20h-10v-24h-12v-22h-8v-8h-10v-22h-12v-10h-60v10h-12v12h-10v10h-10v20h-12v10h-10v34h-10v20h-12v22h-10v22h-10v20h-12v22h-10v22h-14v22h-2v-96h-10v-90h10v-130h10v-34h10v-8h14v-12h42v-10h20v-32h12v-50h-12v-10 h-10v-12h-252v12h-12v82h12v10h10v10h20v12h12v8h10v174h14v306h-14v10h-22v10h-52v32h-14z" />
<glyph unicode="&#x25fc;" horiz-adv-x="1010" d="M0 0v1010h1010v-1010h-1010z" />
</font>
</defs>
</svg>
